{"glyphs":{"0":{"ha":646,"x_min":133,"x_max":738,"o":"m 298 -36 l 298 -36 q 232 -14 262 -29 q 180 26 201 0 q 146 89 158 51 q 133 180 133 126 l 133 180 q 150 306 133 241 q 198 433 167 371 q 270 550 228 494 q 360 647 311 605 q 464 713 409 688 q 574 737 518 737 l 574 737 q 647 722 616 737 q 698 679 677 706 q 728 613 718 651 q 738 529 738 574 l 738 529 q 724 405 738 470 q 682 278 709 340 q 617 160 655 216 q 529 60 578 103 q 422 -9 480 17 q 298 -36 364 -35 z m 258 139 l 258 139 q 282 43 258 71 q 352 7 306 15 l 352 7 q 438 41 397 9 q 512 123 478 73 q 574 233 546 172 q 620 353 601 293 q 649 467 639 413 q 659 555 659 520 l 659 555 q 647 645 659 610 q 605 686 634 679 l 605 686 q 516 650 559 680 q 434 573 472 619 q 363 470 395 527 q 308 353 331 412 q 271 238 284 294 q 258 139 258 182 z"},"1":{"ha":438,"x_min":34,"x_max":551,"o":"m 374 72 l 374 72 q 426 56 407 72 q 444 10 444 39 l 444 10 q 443 -6 444 2 q 439 -21 441 -15 l 439 -21 q 410 -17 426 -19 q 372 -16 394 -16 l 372 -16 q 311 -20 342 -16 q 249 -28 279 -24 q 191 -37 219 -33 q 139 -41 163 -41 l 139 -41 q 72 -26 100 -41 q 34 15 44 -11 l 34 15 q 54 24 38 19 q 92 34 69 28 q 143 44 114 39 q 201 54 171 49 l 201 54 q 233 178 215 114 q 269 305 250 241 q 307 430 287 368 q 347 550 327 492 l 347 550 q 277 508 313 534 q 214 458 240 481 l 214 458 q 203 485 203 464 l 203 485 q 278 574 240 535 q 362 657 316 613 l 362 657 q 389 688 373 668 q 415 728 404 708 l 415 728 q 450 720 429 724 q 492 709 471 715 q 529 693 512 702 q 551 672 545 684 l 551 672 q 528 649 538 661 q 509 623 517 637 l 509 623 q 463 523 489 587 q 409 382 436 458 q 354 223 381 305 q 304 68 326 140 l 304 68 q 343 71 325 70 q 374 72 360 72 z"},"2":{"ha":564,"x_min":87,"x_max":645,"o":"m 645 558 l 645 558 q 624 465 645 510 q 564 375 602 420 q 474 283 526 330 q 360 182 421 235 l 360 182 q 313 139 332 158 q 279 103 293 120 q 255 69 265 85 q 235 33 244 52 l 235 33 q 395 69 315 38 q 531 150 474 100 l 531 150 q 541 135 535 145 q 552 111 547 124 q 560 82 556 97 q 563 51 563 66 l 563 51 q 552 8 563 26 l 552 8 q 524 -9 542 -3 q 480 -18 505 -15 q 426 -22 455 -21 q 366 -23 397 -23 l 366 -23 q 306 -24 336 -23 q 249 -29 276 -26 q 198 -40 221 -33 q 158 -59 174 -47 l 158 -59 q 115 -26 134 -48 q 87 20 95 -5 l 87 20 q 108 74 93 49 q 149 126 123 99 q 212 185 174 153 q 302 259 250 216 l 302 259 q 407 349 360 307 q 487 430 454 391 q 537 506 519 468 q 554 582 554 543 l 554 582 q 529 659 554 631 q 463 687 504 687 l 463 687 q 407 674 434 687 q 359 637 380 660 q 325 583 338 613 q 312 518 312 552 l 312 518 q 320 474 312 493 q 343 434 327 454 l 343 434 q 317 431 329 431 l 317 431 q 273 439 293 431 q 239 461 253 447 q 216 494 224 475 q 208 536 208 513 l 208 536 q 230 609 208 574 q 288 669 252 643 q 370 711 324 695 q 462 726 415 726 l 462 726 q 537 714 503 726 q 595 680 571 702 q 632 626 619 657 q 645 558 645 595 z"},"3":{"ha":555,"x_min":90,"x_max":595,"o":"m 232 662 l 232 662 q 273 682 247 672 q 329 698 299 691 q 390 709 359 705 q 444 713 420 713 l 444 713 q 514 702 485 713 q 561 672 543 690 q 587 630 579 653 q 595 583 595 607 l 595 583 q 586 530 595 558 q 558 474 576 502 q 515 420 540 446 q 458 372 489 393 l 458 372 q 554 332 524 364 q 584 246 584 300 l 584 246 q 565 155 584 195 q 514 83 546 114 q 439 29 481 51 q 351 -8 397 6 q 256 -29 304 -23 q 165 -36 208 -36 l 165 -36 q 109 3 128 -28 q 90 79 90 34 l 90 79 q 91 85 90 82 q 91 92 91 88 l 91 92 q 171 82 122 82 l 171 82 q 281 94 222 82 q 390 129 340 106 q 473 186 440 152 q 506 265 506 220 l 506 265 q 485 320 506 298 q 417 347 463 341 l 417 347 q 360 322 387 329 q 318 314 332 314 l 318 314 q 279 334 295 314 q 263 395 263 354 l 263 395 q 359 405 308 395 q 451 440 409 415 q 522 505 493 464 q 552 607 550 545 l 552 607 q 529 636 547 627 q 484 645 510 645 l 484 645 q 432 638 460 645 q 375 619 403 631 q 320 589 346 606 q 274 551 293 571 l 274 551 q 243 588 254 563 q 231 644 231 612 l 231 644 q 231 653 231 649 q 232 662 231 657 z"},"4":{"ha":570,"x_min":104,"x_max":730,"o":"m 620 688 l 620 688 q 682 666 650 681 q 730 624 713 650 l 730 624 q 631 473 677 551 q 543 312 585 395 l 543 312 l 592 322 q 602 300 601 312 l 602 300 l 523 271 q 460 123 487 197 q 416 -31 433 48 l 416 -31 q 358 -23 386 -30 q 309 6 330 -17 l 309 6 q 349 124 327 66 q 397 239 371 181 l 397 239 q 354 235 378 237 q 309 232 329 232 l 309 232 q 253 235 282 232 q 197 245 224 237 q 146 265 170 252 q 104 300 122 278 l 104 300 q 250 495 183 390 q 368 710 317 600 l 368 710 q 438 683 403 699 q 501 643 472 667 l 501 643 q 429 559 467 604 q 353 468 390 513 q 283 382 315 423 q 228 310 250 341 l 228 310 q 282 295 254 299 q 337 290 309 290 l 337 290 q 380 291 356 290 q 422 294 403 292 l 422 294 q 520 494 471 396 q 620 688 569 591 z"},"5":{"ha":538,"x_min":74,"x_max":703,"o":"m 175 381 l 175 381 q 211 464 188 417 q 258 558 233 511 q 306 645 282 604 q 347 709 330 686 l 347 709 q 391 688 367 701 q 435 655 415 674 l 435 655 q 475 661 449 656 q 527 671 500 665 q 579 682 554 676 q 615 691 603 687 l 615 691 q 668 643 649 675 q 703 565 687 611 l 703 565 q 574 590 642 581 q 440 599 505 599 l 440 599 q 400 556 419 581 q 363 505 380 531 q 333 454 346 478 q 310 413 319 430 l 310 413 q 382 427 345 427 l 382 427 q 444 414 416 427 q 492 378 472 401 q 523 325 512 355 q 534 258 534 294 l 534 258 q 500 151 534 203 q 412 57 466 98 q 292 -9 358 16 q 159 -36 225 -35 l 159 -36 q 110 -8 135 -31 q 74 55 85 15 l 74 55 q 154 65 111 56 q 241 89 197 73 q 324 128 284 105 q 395 177 364 150 q 445 236 426 204 q 463 302 463 267 l 463 302 q 394 363 463 363 l 394 363 q 328 353 362 363 q 264 323 294 343 l 264 323 q 216 346 242 331 q 175 381 189 361 z"},"6":{"ha":565,"x_min":108,"x_max":682,"o":"m 550 732 l 550 732 q 579 725 561 732 q 617 707 597 718 q 654 681 636 695 q 682 651 671 666 l 682 651 q 594 619 647 646 q 483 547 540 591 q 373 444 426 502 q 283 319 319 385 l 283 319 q 334 367 307 344 q 389 407 361 389 q 444 435 416 424 q 496 447 471 446 l 496 447 q 538 419 517 436 q 576 381 559 401 q 604 337 593 360 q 615 291 615 314 l 615 291 q 599 224 615 261 q 555 150 582 187 q 493 77 528 112 q 422 15 458 42 q 349 -29 385 -13 q 285 -46 313 -46 l 285 -46 q 158 12 207 -30 q 108 124 108 54 l 108 124 q 128 245 108 182 q 180 370 147 308 q 257 491 213 432 q 351 597 301 549 q 451 681 400 645 q 550 732 502 716 z m 494 400 l 494 400 q 381 347 432 380 q 294 273 330 313 q 237 188 257 232 q 216 103 216 144 l 216 103 q 221 72 216 88 q 235 42 226 56 q 256 17 244 28 q 281 1 268 5 l 281 1 q 365 59 321 20 q 445 145 408 98 q 505 240 481 191 q 529 327 529 288 l 529 327 q 521 367 529 347 q 494 400 513 387 z"},"7":{"ha":557,"x_min":202,"x_max":704,"o":"m 241 364 l 241 364 q 287 370 264 368 q 333 372 310 372 l 333 372 q 355 372 344 372 q 376 370 365 371 l 376 370 q 457 496 413 433 q 552 618 501 559 l 552 618 q 483 638 517 631 q 422 644 449 644 l 422 644 q 303 572 328 644 l 303 572 q 238 603 265 579 q 202 659 211 626 l 202 659 q 335 732 238 732 l 335 732 q 396 725 363 732 q 461 706 428 717 q 525 680 493 694 q 583 652 556 666 l 583 652 q 604 674 594 663 q 625 696 614 685 l 625 696 q 674 661 651 685 q 704 611 696 637 l 704 611 q 588 509 644 579 q 487 349 532 439 l 487 349 q 568 311 534 334 q 619 258 602 288 l 619 258 l 612 251 q 548 275 588 265 q 460 292 508 285 l 460 292 q 394 103 418 198 q 370 -69 370 8 l 370 -69 q 287 -41 324 -61 q 238 0 250 -22 l 238 0 q 266 135 240 56 q 338 302 292 213 l 338 302 q 266 300 297 302 q 203 294 234 298 l 203 294 q 203 296 203 296 q 202 298 202 296 l 202 298 q 206 315 202 305 q 216 335 210 325 q 228 353 221 344 q 241 364 235 361 z"},"8":{"ha":569,"x_min":107,"x_max":647,"o":"m 584 207 l 584 207 q 561 105 584 151 q 500 26 537 59 q 415 -26 462 -8 q 322 -45 368 -45 l 322 -45 q 239 -36 278 -45 q 171 -7 200 -27 q 124 47 141 13 q 107 129 107 80 l 107 129 q 124 211 107 174 q 170 279 140 248 q 240 336 199 310 q 328 382 280 361 l 328 382 q 268 452 293 414 q 242 539 242 489 l 242 539 q 264 617 242 581 q 319 678 285 652 q 394 721 352 704 q 477 742 436 737 l 477 742 q 600 680 552 718 q 647 594 647 642 l 647 594 q 632 543 647 568 q 592 494 617 517 q 534 450 566 470 q 467 413 501 429 l 467 413 q 509 371 488 392 q 547 324 530 349 q 574 271 563 299 q 584 207 584 242 z m 212 108 l 212 108 q 220 60 212 80 q 242 26 228 39 q 273 6 255 12 q 308 -1 290 -1 l 308 -1 q 359 12 333 -1 q 406 48 385 24 q 440 107 427 72 q 453 187 453 142 l 453 187 q 430 271 453 235 q 375 337 407 306 l 375 337 q 299 282 330 311 q 248 224 267 253 q 221 165 229 194 q 212 108 212 135 z m 557 617 l 557 617 q 542 668 557 649 q 503 691 526 687 l 503 691 q 459 676 482 687 q 417 647 436 664 q 385 610 397 630 q 372 568 372 589 l 372 568 q 388 505 372 533 q 428 451 404 477 l 428 451 q 470 483 447 463 q 512 526 492 503 q 544 573 531 549 q 557 617 557 596 z"},"9":{"ha":554,"x_min":111,"x_max":675,"o":"m 231 -60 l 231 -60 q 198 -47 217 -56 q 161 -27 179 -38 q 129 -3 143 -16 q 111 19 114 9 l 111 19 q 197 54 146 23 q 301 133 247 85 q 406 241 355 180 q 492 365 457 301 l 492 365 q 444 319 470 342 q 390 277 417 296 q 335 246 362 258 q 285 233 308 234 l 285 233 q 244 263 264 244 q 208 305 224 282 q 182 352 192 327 q 172 399 172 376 l 172 399 q 189 465 172 429 q 234 538 206 501 q 296 608 261 574 q 368 669 331 642 q 440 711 405 695 q 503 727 475 727 l 503 727 q 628 666 581 711 q 675 550 675 620 l 675 550 q 656 454 675 510 q 603 335 636 397 q 525 209 569 272 q 431 91 480 145 q 331 -4 382 36 q 231 -60 279 -44 z m 292 290 l 292 290 q 392 333 341 300 q 482 408 442 365 q 548 499 522 451 q 573 589 573 547 l 573 589 q 566 619 573 603 q 546 648 558 634 q 519 673 534 662 q 487 688 503 683 l 487 688 q 437 654 463 675 q 387 605 411 632 q 341 547 362 578 q 303 485 319 516 q 277 424 286 454 q 267 369 267 394 l 267 369 q 273 325 267 346 q 292 290 278 304 z"},"A":{"ha":642,"x_min":61,"x_max":716,"o":"m 146 -76 l 146 -76 q 80 -48 98 -62 q 61 -13 61 -34 l 61 -13 q 70 32 61 3 q 97 101 79 61 q 139 188 114 140 q 194 291 163 236 l 194 291 q 148 293 168 292 q 114 293 127 293 l 114 293 q 148 319 120 308 q 222 338 176 330 l 222 338 q 306 462 261 403 q 395 571 350 521 q 485 658 440 620 q 571 717 530 695 l 571 717 q 573 729 572 724 q 573 736 573 734 l 573 736 q 611 729 587 736 q 657 712 634 722 q 697 692 679 702 q 716 674 714 681 l 716 674 q 651 501 683 616 q 598 224 619 385 l 598 224 q 590 133 593 184 q 586 19 586 82 l 586 19 q 586 -26 586 -3 q 588 -74 586 -49 l 588 -74 q 584 -75 586 -75 q 576 -75 582 -75 l 576 -75 q 544 -70 562 -75 q 508 -59 525 -66 q 478 -45 490 -53 q 462 -31 465 -37 l 462 -31 q 461 -5 461 -18 q 461 21 461 7 l 461 21 q 466 147 461 83 q 481 279 470 211 l 481 279 q 444 282 467 280 q 393 284 421 283 q 332 287 364 285 q 268 289 299 288 l 268 289 q 223 200 244 244 q 187 110 202 155 l 187 110 q 160 14 170 62 q 146 -76 149 -34 z m 532 525 l 532 525 q 542 564 536 539 q 552 615 547 588 l 552 615 q 497 582 527 606 q 434 523 466 558 q 368 443 401 487 q 303 348 334 398 l 303 348 q 494 357 387 355 l 494 357 q 512 441 502 399 q 532 525 521 482 z"},"B":{"ha":719,"x_min":135,"x_max":790,"o":"m 790 551 l 790 551 q 756 441 790 489 q 663 360 722 392 l 663 360 q 724 297 701 334 q 746 214 746 259 l 746 214 q 714 108 746 160 q 627 15 681 55 q 504 -51 573 -26 q 363 -76 435 -76 l 363 -76 q 227 -46 285 -76 q 135 37 168 -17 l 135 37 q 162 112 145 67 q 198 206 178 156 q 239 304 218 255 q 277 392 259 353 l 277 392 q 345 533 315 477 q 400 622 375 589 l 400 622 q 300 584 345 605 q 234 542 255 562 l 234 542 q 216 560 225 548 q 198 587 206 572 q 184 616 189 601 q 177 643 178 631 l 177 643 q 245 678 203 661 q 335 706 286 694 q 436 725 384 718 q 534 732 487 732 l 534 732 q 722 684 654 732 q 790 551 790 636 z m 409 312 l 409 312 q 374 339 390 321 l 374 339 q 331 239 351 288 q 294 148 310 190 q 268 75 278 106 q 257 30 258 44 l 257 30 q 291 18 271 22 q 339 14 310 14 l 339 14 q 469 33 407 14 q 578 85 531 52 q 653 159 625 117 q 681 247 681 201 l 681 247 q 624 342 681 313 l 624 342 q 448 310 546 310 l 448 310 q 427 310 434 310 q 409 312 419 310 z m 603 659 l 603 659 q 559 657 582 659 q 509 649 535 654 l 509 649 q 516 641 513 645 q 520 631 518 636 l 520 631 q 498 596 511 619 q 469 543 485 573 q 436 475 453 512 q 400 399 418 438 l 400 399 q 442 406 417 403 q 490 408 466 408 l 490 408 q 516 407 503 408 q 540 404 528 406 l 540 404 q 627 428 588 412 q 693 464 665 443 q 736 509 721 484 q 751 562 751 534 l 751 562 q 713 635 751 610 q 603 659 675 659 z"},"C":{"ha":604,"x_min":142,"x_max":734,"o":"m 142 196 l 142 196 q 159 334 142 266 q 205 462 175 401 q 277 573 235 522 q 368 660 318 623 q 473 718 417 697 q 588 738 529 738 l 588 738 q 696 709 657 738 q 734 628 734 680 l 734 628 q 729 587 734 608 q 713 546 723 566 q 688 506 702 525 q 657 473 674 487 l 657 473 q 612 497 631 477 q 588 542 593 516 l 588 542 q 644 603 623 571 q 664 660 664 634 l 664 660 q 609 704 664 704 l 609 704 q 562 695 586 704 q 512 668 537 685 q 464 627 487 651 q 420 574 440 603 l 420 574 q 281 165 281 374 l 281 165 q 304 46 281 91 q 365 -7 327 1 l 365 -7 q 474 48 408 3 q 618 165 540 93 l 618 165 q 630 144 628 155 l 630 144 q 570 71 601 106 q 509 7 539 36 q 449 -44 478 -22 q 394 -78 419 -66 l 394 -78 q 206 -7 270 -76 q 142 196 142 62 z"},"D":{"ha":778,"x_min":156,"x_max":842,"o":"m 168 52 l 168 52 q 204 137 183 85 q 248 250 225 189 q 295 374 271 310 q 340 494 319 437 q 377 596 361 551 q 399 665 392 641 l 399 665 q 291 586 336 639 q 223 453 246 533 l 223 453 q 181 482 200 461 q 156 533 162 502 l 156 533 q 194 617 166 579 q 263 682 221 655 q 360 724 305 709 q 478 738 415 738 l 478 738 q 625 715 558 738 q 740 649 692 691 q 815 548 788 607 q 842 417 842 489 l 842 417 q 806 230 842 319 q 709 73 770 141 q 566 -35 647 5 q 396 -76 485 -76 l 396 -76 q 256 -43 314 -76 q 168 52 197 -11 z m 521 688 l 521 688 q 426 674 471 688 l 426 674 q 499 641 470 658 q 539 613 528 623 l 539 613 q 516 574 531 602 q 480 506 500 546 q 436 419 459 466 q 391 321 413 371 l 391 321 q 309 121 334 194 q 283 20 283 48 l 283 20 q 317 13 297 15 q 360 11 337 11 l 360 11 q 514 49 441 11 q 641 149 586 86 q 727 296 695 212 q 758 471 758 379 l 758 471 q 694 631 758 574 q 521 688 630 688 z"},"E":{"ha":609,"x_min":108,"x_max":764,"o":"m 514 426 l 514 426 q 566 408 547 426 q 584 358 584 390 l 584 358 q 583 342 584 350 q 579 327 581 333 l 579 327 q 550 331 566 329 q 512 332 534 332 l 512 332 q 425 325 469 332 q 341 312 381 317 l 341 312 q 299 210 318 259 q 267 119 280 160 q 246 48 253 78 q 237 3 238 18 l 237 3 q 401 32 318 20 q 574 50 483 44 l 574 50 q 593 13 585 33 q 600 -30 600 -7 l 600 -30 q 600 -43 600 -36 q 598 -57 600 -50 l 598 -57 q 539 -55 570 -56 q 458 -55 508 -55 l 458 -55 q 396 -56 425 -55 q 336 -61 366 -58 q 273 -69 306 -64 q 197 -81 239 -74 l 197 -81 q 108 7 151 -63 l 108 7 q 156 117 125 43 q 233 313 186 190 l 233 313 q 174 363 188 327 l 174 363 q 203 376 179 368 q 262 391 227 383 l 262 391 q 288 459 277 430 q 306 514 298 488 q 321 564 314 539 q 333 617 327 588 l 333 617 q 278 637 298 619 q 258 682 258 654 l 258 682 q 261 701 258 690 q 266 720 263 712 l 266 720 q 305 716 286 717 q 353 715 323 715 l 353 715 q 471 719 416 715 q 571 726 526 722 q 647 734 615 730 q 696 737 679 737 l 696 737 q 737 713 719 737 q 764 645 755 689 l 764 645 q 714 649 733 648 q 679 650 694 650 l 679 650 q 579 645 624 650 q 491 633 533 639 l 491 633 q 478 610 485 624 q 458 571 470 596 q 429 508 446 546 q 386 413 411 470 l 386 413 q 458 423 424 419 q 514 426 491 426 z"},"F":{"ha":551,"x_min":113,"x_max":756,"o":"m 520 417 l 520 417 q 571 399 552 417 q 589 349 589 381 l 589 349 q 588 333 589 341 q 584 318 587 324 l 584 318 q 555 322 571 320 q 517 323 539 323 l 517 323 q 427 315 472 323 q 341 302 382 307 l 341 302 q 267 103 296 196 q 222 -81 238 10 l 222 -81 q 162 -52 188 -73 q 113 7 136 -31 l 113 7 q 130 46 120 23 q 154 103 140 68 q 188 187 168 137 q 234 305 207 236 l 234 305 q 179 354 192 319 l 179 354 q 207 366 184 359 q 263 380 230 372 l 263 380 q 289 450 278 419 q 309 508 300 480 q 326 562 318 535 q 339 618 333 588 l 339 618 l 334 618 q 273 636 296 618 q 249 683 249 654 l 249 683 q 252 702 249 691 q 258 721 254 713 l 258 721 q 296 717 277 718 q 344 716 314 716 l 344 716 q 462 720 407 716 q 562 727 517 723 q 638 735 606 731 q 687 738 670 738 l 687 738 q 728 714 710 738 q 756 646 746 690 l 756 646 q 705 650 724 649 q 670 651 685 651 l 670 651 q 577 647 619 651 q 496 636 534 642 l 496 636 q 483 613 490 627 q 463 574 475 599 q 433 507 451 548 q 386 403 414 466 l 386 403 q 461 413 425 409 q 520 417 496 417 z"},"G":{"ha":650,"x_min":141,"x_max":740,"o":"m 655 318 l 655 318 q 696 300 681 318 q 711 250 711 282 l 711 250 q 710 234 711 242 q 707 219 709 225 l 707 219 q 661 225 686 224 l 661 225 q 629 133 655 181 q 566 42 603 84 q 485 -33 529 -1 q 398 -76 441 -65 l 398 -76 q 203 -6 264 -73 q 141 201 141 60 l 141 201 q 179 401 141 304 q 280 572 217 497 q 425 693 343 647 q 594 738 506 738 l 594 738 q 702 709 663 738 q 740 627 740 680 l 740 627 q 724 562 740 592 q 669 497 707 532 l 669 497 q 629 522 646 504 q 608 562 612 539 l 608 562 q 656 608 642 587 q 670 658 670 629 l 670 658 q 615 704 670 704 l 615 704 q 519 671 570 704 q 415 574 467 637 l 415 574 q 307 391 341 485 q 273 178 273 296 l 273 178 q 282 98 273 134 q 306 35 291 62 q 342 -8 321 8 q 386 -26 362 -24 l 386 -26 q 450 7 418 -19 q 509 67 482 32 q 554 141 535 101 q 576 216 572 180 l 576 216 q 523 205 548 210 q 474 199 497 199 l 474 199 q 422 214 444 199 q 391 255 399 229 l 391 255 q 444 276 409 265 q 517 297 478 287 q 594 312 556 306 q 655 318 631 318 z"},"H":{"ha":675,"x_min":72,"x_max":827,"o":"m 491 58 l 491 58 q 505 166 491 100 q 542 307 519 232 l 542 307 q 410 294 476 302 q 294 285 343 286 l 294 285 q 223 92 249 180 q 181 -81 196 3 l 181 -81 q 118 -49 143 -72 q 72 7 93 -27 l 72 7 q 91 48 80 23 q 116 109 101 73 q 149 192 130 144 q 191 302 167 239 l 191 302 q 147 341 158 316 l 147 341 q 170 350 152 345 q 213 359 187 354 l 213 359 l 226 391 q 261 482 247 445 q 284 555 274 519 q 302 633 293 590 q 322 742 310 676 l 322 742 q 399 705 364 734 q 458 635 433 676 l 458 635 q 436 599 449 623 q 408 542 423 575 q 374 467 392 508 q 335 379 356 425 l 335 379 q 461 394 397 387 q 573 404 524 401 l 573 404 q 611 506 591 456 q 649 596 630 555 q 686 668 668 637 q 717 714 703 699 l 717 714 q 744 707 727 713 q 777 691 760 700 q 808 672 794 682 q 827 652 822 661 l 827 652 q 791 608 809 635 q 756 546 773 581 q 721 470 738 511 q 689 385 704 429 l 689 385 q 709 340 709 367 l 709 340 q 701 305 709 321 l 701 305 q 683 308 692 307 q 664 309 674 308 l 664 309 q 633 202 647 255 q 610 101 619 149 q 595 13 600 53 q 589 -54 589 -27 l 589 -54 q 590 -70 589 -64 q 591 -80 590 -76 l 591 -80 q 559 -72 569 -79 q 544 -58 549 -66 q 535 -43 539 -51 q 522 -32 531 -36 l 522 -32 q 509 -18 515 -29 q 499 7 503 -7 q 493 35 495 21 q 491 58 491 49 z"},"I":{"ha":315,"x_min":131,"x_max":465,"o":"m 131 57 l 131 57 q 143 151 131 93 q 173 275 154 208 q 215 411 191 341 q 264 541 239 480 q 313 648 289 602 q 356 714 337 694 l 356 714 q 383 707 366 713 q 416 691 399 700 q 447 672 433 682 q 465 652 461 661 l 465 652 q 408 574 436 626 q 353 454 379 521 q 303 313 326 387 q 263 168 280 238 q 237 38 246 98 q 227 -59 227 -22 l 227 -59 q 230 -80 227 -76 l 230 -80 q 198 -72 208 -79 q 183 -58 188 -66 q 173 -43 177 -51 q 159 -32 168 -36 l 159 -32 q 147 -18 152 -29 q 139 7 142 -7 q 133 34 135 20 q 131 57 131 48 z"},"J":{"ha":512,"x_min":17,"x_max":627,"o":"m 476 739 l 476 739 q 555 725 514 739 q 627 689 596 711 l 627 689 q 609 597 617 638 q 593 523 600 556 q 580 462 586 489 q 567 410 573 434 l 567 410 q 518 248 543 320 q 464 117 492 175 q 404 14 435 59 q 336 -65 372 -31 l 336 -65 q 266 -119 301 -98 q 201 -146 231 -140 l 201 -146 q 127 -137 161 -146 q 69 -112 93 -128 q 31 -75 44 -97 q 17 -28 17 -54 l 17 -28 q 31 43 17 0 q 74 143 45 85 l 74 143 q 102 137 86 142 q 134 125 118 132 q 163 110 150 118 q 182 93 176 101 l 182 93 q 130 21 150 60 q 110 -48 110 -19 l 110 -48 q 117 -78 110 -65 q 139 -103 123 -92 l 139 -103 q 258 -17 200 -80 q 361 138 316 45 l 361 138 q 410 264 388 193 q 448 407 432 335 q 472 544 463 478 q 480 654 480 609 l 480 654 q 480 674 480 661 q 479 700 479 686 q 477 724 478 713 q 476 739 476 735 z"},"K":{"ha":653,"x_min":74,"x_max":842,"o":"m 334 317 l 334 317 q 457 487 396 409 q 572 620 517 564 q 673 707 627 676 q 753 738 719 738 l 753 738 q 782 728 766 738 q 811 702 797 718 q 833 668 824 686 q 842 632 842 649 l 842 632 q 721 580 780 612 q 607 505 661 547 q 503 410 552 462 q 413 299 453 358 l 413 299 q 453 212 429 258 q 504 122 476 165 q 564 41 532 78 q 629 -18 596 4 l 629 -18 q 612 -39 624 -29 q 586 -57 600 -49 q 557 -71 572 -66 q 528 -76 541 -76 l 528 -76 q 480 -51 502 -76 q 436 23 458 -27 q 389 146 413 72 q 334 317 364 219 z m 183 -81 l 183 -81 q 120 -49 145 -72 q 74 7 95 -27 l 74 7 q 96 57 83 26 q 126 134 108 88 q 169 243 144 179 q 227 391 194 306 l 227 391 q 262 482 248 445 q 285 555 275 519 q 303 633 294 590 q 324 742 312 676 l 324 742 q 401 705 366 734 q 460 635 435 676 l 460 635 q 435 593 449 621 q 402 524 420 564 q 362 435 384 484 q 316 331 340 386 l 316 331 q 231 112 262 211 q 183 -81 200 12 z"},"L":{"ha":500,"x_min":74,"x_max":498,"o":"m 473 57 l 473 57 q 498 -26 498 14 l 498 -26 q 497 -42 498 -35 q 493 -58 495 -50 l 493 -58 q 458 -55 476 -56 q 419 -54 439 -54 l 419 -54 q 371 -55 395 -54 q 316 -60 346 -57 q 249 -68 286 -63 q 163 -81 212 -73 l 163 -81 q 117 -49 140 -73 q 74 7 94 -26 l 74 7 q 99 62 84 29 q 134 141 114 94 q 179 250 154 187 q 231 394 203 312 l 231 394 q 262 489 249 448 q 286 569 275 530 q 306 649 296 607 q 328 746 316 691 l 328 746 q 398 717 368 738 q 454 655 427 695 l 454 655 q 433 613 446 642 q 403 543 420 584 q 364 449 385 501 q 320 336 343 396 l 320 336 q 277 225 298 277 q 240 131 256 173 q 213 59 223 89 q 203 14 203 29 l 203 14 q 232 16 219 15 q 259 20 245 17 q 290 26 273 22 q 329 35 306 29 l 329 35 q 366 44 349 40 q 400 50 383 47 q 434 54 416 52 q 473 57 451 55 z"},"M":{"ha":942,"x_min":47,"x_max":1022,"o":"m 514 -74 l 514 -74 q 510 -75 512 -75 q 502 -75 508 -75 l 502 -75 q 470 -70 488 -75 q 434 -59 451 -66 q 404 -45 416 -53 q 388 -31 391 -37 l 388 -31 q 387 -2 387 -17 q 387 27 387 13 l 387 27 q 404 261 387 139 q 458 525 420 383 l 458 525 q 467 561 462 539 q 476 607 471 582 l 476 607 q 419 547 452 588 q 350 449 386 505 q 277 325 313 392 q 210 188 240 257 q 159 50 180 118 q 132 -76 137 -18 l 132 -76 q 66 -48 84 -62 q 47 -14 47 -34 l 47 -14 q 58 37 47 4 q 89 115 69 70 q 138 216 109 160 q 202 335 167 271 l 202 335 q 281 472 242 408 q 356 588 319 536 q 429 678 393 640 q 499 736 464 716 l 499 736 q 537 729 513 736 q 583 712 560 722 q 623 692 605 702 q 642 674 640 681 l 642 674 q 609 590 628 646 q 571 463 590 534 q 534 313 551 392 q 506 160 516 233 l 506 160 q 560 275 529 215 q 624 393 590 334 q 694 506 658 451 q 763 607 729 561 q 827 686 797 652 q 879 736 856 720 l 879 736 q 917 729 893 736 q 963 712 940 722 q 1003 692 985 702 q 1022 674 1020 681 l 1022 674 q 966 535 990 617 q 926 363 942 453 q 901 185 909 273 q 892 26 892 96 l 892 26 q 892 -22 892 3 q 894 -74 892 -47 l 894 -74 q 861 -70 880 -74 q 823 -61 841 -67 q 789 -47 804 -55 q 768 -31 774 -40 l 768 -31 q 767 -2 767 -17 q 767 27 767 13 l 767 27 q 784 261 767 139 q 838 525 800 383 l 838 525 q 847 563 842 539 q 857 613 852 587 l 857 613 q 794 560 829 599 q 722 464 758 520 q 650 338 685 407 q 586 198 614 269 q 538 56 557 126 q 514 -74 518 -15 z"},"N":{"ha":683,"x_min":93,"x_max":851,"o":"m 190 -76 l 190 -76 q 113 -43 133 -59 q 93 -1 93 -28 l 93 -1 q 107 84 93 29 q 144 205 121 138 q 195 345 166 272 q 254 485 224 418 q 313 608 284 552 q 363 694 341 663 l 363 694 l 356 736 q 395 729 370 736 q 446 712 420 722 q 491 692 471 702 q 512 674 510 681 l 512 674 q 504 602 507 650 q 501 498 501 553 l 501 498 q 510 285 501 389 q 549 72 518 180 l 549 72 q 584 232 565 152 q 622 384 602 311 q 662 518 642 456 q 701 627 682 580 q 735 700 719 673 q 764 728 751 726 l 764 728 q 788 720 775 726 q 813 704 801 713 q 835 684 825 695 q 851 662 845 673 l 851 662 q 788 601 819 649 q 728 485 756 553 q 675 336 699 416 q 632 179 650 256 q 603 35 613 101 q 591 -71 592 -31 l 591 -71 q 592 -74 591 -73 l 592 -74 q 586 -75 589 -75 q 579 -75 582 -75 l 579 -75 q 498 -63 533 -75 q 451 -31 462 -52 l 451 -31 q 416 131 430 53 q 393 287 402 209 q 378 445 383 365 q 369 611 372 524 l 369 611 q 329 533 350 581 q 288 426 308 484 q 250 304 268 368 q 217 179 231 240 q 195 64 203 118 q 187 -31 187 9 l 187 -31 q 188 -61 187 -52 q 190 -76 188 -70 z"},"O":{"ha":723,"x_min":135,"x_max":801,"o":"m 562 728 l 562 728 q 601 708 581 720 q 638 682 621 695 q 667 657 655 669 q 679 636 678 644 l 679 636 q 645 642 662 640 q 614 643 628 643 l 614 643 q 525 621 569 643 q 440 561 480 599 q 366 472 400 523 q 308 363 332 421 q 269 243 283 305 q 255 121 255 181 l 255 121 q 281 5 255 43 q 357 -33 307 -33 l 357 -33 q 409 -23 381 -33 q 466 3 437 -14 q 523 44 495 20 q 575 97 551 68 l 575 97 q 638 193 610 139 q 686 306 666 246 q 716 430 705 366 q 726 554 726 493 l 726 554 q 725 595 726 578 q 723 623 724 611 q 720 641 721 634 q 718 653 719 648 l 718 653 q 745 639 730 647 q 772 614 759 630 q 793 570 784 597 q 801 500 801 543 l 801 500 q 785 363 801 430 q 739 234 768 295 q 669 120 709 173 q 583 27 629 67 l 583 27 q 455 -55 523 -26 q 324 -84 387 -84 l 324 -84 q 184 -25 232 -84 q 135 147 135 33 l 135 147 q 149 276 135 208 q 187 410 162 344 q 245 536 211 476 q 320 641 279 595 q 407 713 360 686 q 502 740 453 740 l 502 740 q 532 738 518 740 q 562 728 546 735 z"},"P":{"ha":642,"x_min":130,"x_max":782,"o":"m 782 539 l 782 539 q 755 434 782 484 q 681 347 727 384 q 572 287 634 309 q 439 265 509 265 l 439 265 q 400 272 414 265 q 367 297 385 278 l 367 297 q 286 97 317 188 q 236 -81 254 5 l 236 -81 q 174 -49 198 -72 q 130 7 150 -27 l 130 7 q 154 57 140 26 q 188 134 168 88 q 235 243 208 179 q 297 391 261 306 l 297 391 q 325 459 313 430 q 346 514 337 488 q 363 564 355 539 q 378 619 370 589 l 378 619 q 292 584 331 604 q 226 542 252 564 l 226 542 q 208 560 217 548 q 190 587 198 572 q 176 616 182 601 q 169 643 170 631 l 169 643 q 241 680 198 663 q 333 710 284 697 q 435 729 382 722 q 535 736 487 736 l 535 736 q 638 722 592 736 q 716 681 684 707 q 765 619 748 655 q 782 539 782 583 z m 604 659 l 604 659 q 526 653 566 659 l 526 653 l 538 635 q 513 596 528 622 q 480 534 498 570 q 441 452 462 497 q 395 357 419 407 l 395 357 q 537 372 473 357 q 647 412 601 386 q 718 471 692 437 q 743 544 743 505 l 743 544 q 708 628 743 596 q 604 659 673 659 z"},"Q":{"ha":719,"x_min":48,"x_max":820,"o":"m 597 728 l 597 728 q 633 708 614 720 q 668 682 652 695 q 695 656 684 668 q 706 636 706 643 l 706 636 q 676 641 692 639 q 644 643 659 643 l 644 643 q 539 620 590 643 q 442 552 488 596 q 358 445 396 508 q 291 301 319 381 l 291 301 q 254 169 268 234 q 240 59 240 103 l 240 59 q 263 1 240 3 l 263 1 q 284 -1 269 1 q 315 -8 298 -4 q 348 -16 331 -12 q 375 -25 364 -21 l 375 -25 q 464 10 413 -23 q 564 98 515 43 l 564 98 q 642 204 607 146 q 700 325 676 261 q 737 455 724 388 q 749 588 749 522 l 749 588 q 748 627 749 608 q 745 653 747 646 l 745 653 q 803 606 786 633 q 820 537 820 579 l 820 537 q 801 408 820 477 q 749 270 782 339 q 669 138 715 201 q 569 24 623 74 l 569 24 q 453 -50 498 -42 l 453 -50 q 515 -80 480 -64 q 583 -111 550 -97 q 642 -136 616 -126 q 677 -147 668 -146 l 677 -147 q 703 -134 687 -146 q 730 -107 719 -123 l 730 -107 q 740 -123 735 -113 q 745 -138 744 -133 l 745 -138 q 729 -170 741 -152 q 700 -206 716 -189 q 668 -237 684 -224 q 639 -253 651 -250 l 639 -253 q 608 -248 622 -252 q 576 -237 593 -245 q 538 -216 559 -230 q 486 -182 517 -203 l 486 -182 q 390 -119 431 -144 q 315 -79 349 -94 q 251 -58 281 -64 q 189 -52 221 -52 l 189 -52 q 65 -127 77 -52 l 65 -127 q 48 -108 50 -120 l 48 -108 q 86 -30 54 -57 q 183 5 117 -3 l 183 5 q 137 145 137 45 l 137 145 q 154 287 137 215 q 199 424 170 358 q 266 548 227 490 q 349 648 304 605 q 441 716 393 691 q 536 740 489 740 l 536 740 q 568 737 553 740 q 597 728 582 734 z"},"R":{"ha":691,"x_min":129,"x_max":781,"o":"m 781 551 l 781 551 q 760 461 781 503 q 700 385 738 418 q 611 328 662 351 q 500 297 560 305 l 500 297 q 537 205 515 252 q 583 113 558 157 q 635 32 608 69 q 688 -29 662 -5 l 688 -29 q 674 -49 683 -39 q 652 -67 664 -59 q 626 -81 639 -76 q 600 -87 612 -87 l 600 -87 q 558 -66 578 -87 q 518 1 538 -45 q 475 119 497 46 q 425 293 452 191 l 425 293 q 403 293 414 293 q 386 295 392 293 l 386 295 q 371 309 379 299 l 371 309 q 323 200 344 251 q 286 102 302 149 q 257 10 269 54 q 235 -81 244 -35 l 235 -81 q 176 -52 201 -73 q 129 7 151 -31 l 129 7 q 138 25 133 16 q 149 49 142 33 q 167 88 156 64 q 195 152 177 112 q 237 250 212 192 q 296 391 261 308 l 296 391 q 324 456 312 428 q 344 510 335 484 q 361 561 353 535 q 376 619 368 586 l 376 619 q 291 584 330 603 q 225 542 251 564 l 225 542 q 207 560 216 548 q 189 587 197 572 q 175 616 181 601 q 168 643 169 631 l 168 643 q 242 680 198 663 q 334 710 285 697 q 434 729 383 722 q 529 736 485 736 l 529 736 q 715 687 649 736 q 781 551 781 637 z m 525 654 l 537 635 q 515 599 530 626 q 481 535 500 572 q 440 453 461 497 q 398 366 418 409 l 398 366 q 536 380 473 366 q 645 420 599 394 q 717 480 691 445 q 742 556 742 514 l 742 556 q 706 633 742 606 q 595 659 670 659 l 595 659 q 561 658 578 659 q 525 654 544 656 l 525 654 z"},"S":{"ha":702,"x_min":101,"x_max":759,"o":"m 753 674 l 753 674 q 758 651 756 657 q 759 633 759 644 l 759 633 q 745 572 759 600 q 705 531 730 543 l 705 531 q 656 578 685 558 q 593 610 627 597 q 521 628 558 622 q 449 634 484 634 l 449 634 q 384 629 414 634 q 330 614 353 623 q 293 590 306 604 q 279 558 279 576 l 279 558 q 306 514 282 536 q 365 470 330 491 q 443 427 400 448 q 526 387 485 406 l 526 387 q 614 343 577 363 q 675 298 651 322 q 711 242 699 273 q 723 167 723 211 l 723 167 q 706 72 723 116 q 657 -6 689 27 q 578 -57 624 -39 q 475 -76 532 -76 l 475 -76 q 354 -59 419 -76 q 233 -12 289 -42 q 139 56 176 17 q 101 137 101 94 l 101 137 q 113 188 101 157 q 154 253 124 219 l 154 253 q 187 182 157 223 q 275 106 216 141 l 275 106 q 389 60 330 74 q 498 45 447 45 l 498 45 q 589 59 554 45 q 644 93 624 73 q 672 132 664 112 q 681 164 680 152 l 681 164 q 663 203 680 184 q 616 239 645 221 q 547 274 586 256 q 466 310 508 292 l 466 310 q 358 363 403 338 q 283 413 312 387 q 240 466 253 438 q 226 530 226 494 l 226 530 q 260 636 226 586 q 358 712 294 686 l 358 712 q 427 732 390 726 q 498 738 463 738 l 498 738 q 627 720 564 738 q 753 674 690 702 z"},"T":{"ha":588,"x_min":216,"x_max":802,"o":"m 299 606 l 299 606 q 238 629 259 606 q 216 683 216 651 l 216 683 q 219 702 216 691 q 225 721 221 713 l 225 721 q 264 713 238 715 q 323 710 289 710 l 323 710 q 439 715 374 710 q 562 724 503 719 q 666 734 621 729 q 724 738 711 738 l 724 738 q 778 711 761 738 q 802 637 794 683 l 802 637 q 751 641 776 639 q 707 642 725 642 l 707 642 q 643 640 675 642 q 577 634 610 638 l 577 634 q 546 566 563 605 q 513 483 529 526 q 481 398 496 440 q 455 321 466 355 l 455 321 q 417 199 433 255 q 388 95 400 143 q 366 2 375 46 q 350 -84 357 -42 l 350 -84 q 238 0 283 -74 l 238 0 q 258 68 246 31 q 285 151 269 104 q 321 256 300 197 q 369 390 342 315 l 369 390 q 390 449 379 418 q 412 509 401 479 q 431 567 422 539 q 445 618 439 595 l 445 618 q 366 610 403 613 q 299 606 328 606 z"},"U":{"ha":697,"x_min":161,"x_max":800,"o":"m 485 673 l 485 673 q 405 543 441 614 q 344 398 369 472 q 305 251 318 323 q 291 115 291 178 l 291 115 q 314 2 291 37 q 393 -33 337 -33 l 393 -33 q 507 13 458 -33 q 599 138 556 58 l 599 138 q 647 252 627 190 q 680 380 667 314 q 698 512 692 445 q 704 639 704 578 l 704 639 q 703 696 704 678 q 700 725 702 714 l 700 725 q 715 723 703 725 q 743 718 727 721 q 774 710 758 715 q 800 699 789 705 l 800 699 q 782 542 795 623 q 746 382 768 461 q 695 230 724 303 q 630 99 666 157 l 630 99 q 511 -35 577 13 q 355 -84 445 -84 l 355 -84 q 212 -30 263 -84 q 161 132 161 23 l 161 132 q 175 275 161 195 q 213 437 189 354 q 267 598 236 519 q 332 738 298 676 l 332 738 q 372 731 349 737 q 417 716 395 725 q 458 695 439 706 q 485 673 476 683 z"},"V":{"ha":617,"x_min":239,"x_max":827,"o":"m 419 -64 l 419 -64 q 370 -76 396 -76 l 370 -76 q 309 -60 338 -72 q 265 -31 279 -48 l 265 -31 q 252 59 257 18 q 244 137 247 100 q 240 207 241 173 q 239 274 239 240 l 239 274 q 240 369 239 319 q 243 476 241 419 q 245 597 244 532 q 246 737 246 661 l 246 737 q 285 730 259 737 q 337 712 311 722 q 382 692 362 702 q 404 674 402 681 l 404 674 q 387 601 394 646 q 375 501 379 556 q 368 385 370 446 q 366 264 366 324 l 366 264 q 367 184 366 219 q 370 120 368 148 q 374 67 371 91 q 381 18 377 42 l 381 18 q 443 188 409 103 q 512 352 476 273 q 582 498 547 430 q 649 617 617 566 q 705 697 680 667 q 746 728 730 726 l 746 728 q 770 720 757 726 q 793 704 782 713 q 813 684 804 695 q 827 662 822 673 l 827 662 q 748 601 790 649 q 662 486 705 553 q 579 339 619 418 q 506 183 538 259 q 450 41 473 107 q 419 -64 427 -25 z"},"W":{"ha":953,"x_min":219,"x_max":1147,"o":"m 229 -31 l 229 -31 q 222 59 224 10 q 219 149 219 107 l 219 149 q 224 278 219 216 q 235 407 228 339 q 249 554 241 474 q 263 737 257 633 l 263 737 q 301 730 276 737 q 350 712 325 722 q 394 692 375 702 q 416 674 413 681 l 416 674 q 386 572 399 635 q 363 433 372 508 q 349 279 354 358 q 344 131 344 200 l 344 131 q 345 68 344 99 q 348 11 346 37 l 348 11 q 397 100 369 42 q 454 228 424 157 q 513 377 483 299 q 567 525 542 454 q 610 652 592 595 q 634 737 627 708 l 634 737 q 673 730 647 737 q 723 712 698 722 q 766 692 747 702 q 787 674 785 681 l 787 674 q 757 572 770 635 q 734 433 743 508 q 720 279 725 358 q 715 131 715 200 l 715 131 q 716 74 715 102 q 718 22 716 45 l 718 22 q 785 187 750 105 q 853 343 819 268 q 919 482 887 417 q 978 597 951 546 q 1025 680 1005 647 q 1056 724 1045 713 l 1056 724 q 1104 708 1079 721 q 1147 673 1128 694 l 1147 673 q 1081 598 1118 650 q 1005 476 1044 545 q 927 329 966 407 q 853 177 887 251 q 793 39 819 103 q 752 -64 766 -25 l 752 -64 q 701 -76 726 -76 l 701 -76 q 641 -60 669 -72 q 600 -31 612 -48 l 600 -31 q 595 7 597 -15 q 592 49 593 28 q 591 90 591 70 q 590 123 590 109 l 590 123 q 597 305 590 212 q 614 503 604 397 l 614 503 q 563 357 591 435 q 505 203 535 279 q 443 57 474 126 q 381 -64 411 -13 l 381 -64 q 330 -76 355 -76 l 330 -76 q 270 -60 298 -72 q 229 -31 241 -48 z"},"X":{"ha":637,"x_min":68,"x_max":746,"o":"m 647 -4 l 647 -4 q 621 -24 638 -13 q 583 -45 603 -36 q 543 -62 563 -55 q 509 -71 522 -70 l 509 -71 q 486 -61 496 -71 q 465 -15 476 -51 q 440 88 454 20 q 403 271 425 155 l 403 271 q 297 157 346 212 q 213 55 248 102 q 158 -27 178 8 q 138 -80 138 -62 l 138 -80 q 114 -71 126 -79 q 91 -52 101 -63 q 75 -28 81 -41 q 68 -3 68 -15 l 68 -3 q 83 28 71 8 q 113 71 95 48 l 113 71 q 222 185 151 120 q 392 327 292 249 l 392 327 q 208 650 327 650 l 208 650 q 247 701 220 679 q 303 728 273 723 l 303 728 q 357 720 336 728 q 395 677 378 711 q 429 575 412 643 q 472 387 446 506 l 472 387 q 536 459 505 422 q 592 529 566 495 q 638 592 618 563 q 669 642 658 621 l 669 642 q 680 681 680 661 l 680 681 q 669 728 680 699 l 669 728 q 718 693 701 709 q 746 647 734 676 l 746 647 q 733 599 744 623 q 693 542 721 575 q 614 459 664 508 q 483 337 564 410 l 483 337 q 520 185 502 247 q 557 84 538 123 q 598 24 576 44 q 647 -4 620 3 z"},"Y":{"ha":613,"x_min":209,"x_max":803,"o":"m 470 345 l 470 345 q 605 519 545 427 q 715 726 664 611 l 715 726 q 765 712 741 723 q 803 687 789 701 l 803 687 q 704 567 748 621 q 622 466 659 513 q 554 375 585 418 q 492 287 522 331 l 492 287 q 464 184 477 236 q 441 85 451 132 q 426 -3 431 37 q 420 -73 420 -44 l 420 -73 q 385 -68 409 -73 q 336 -58 361 -64 q 291 -46 311 -52 q 266 -36 270 -40 l 266 -36 q 298 31 282 -9 q 328 114 313 70 q 357 202 343 157 q 383 284 371 246 l 383 284 q 335 431 358 362 q 289 555 311 499 q 247 650 267 610 q 209 711 227 690 l 209 711 q 240 719 219 715 q 285 727 260 723 q 335 734 309 731 q 380 737 360 736 l 380 737 q 385 676 380 712 q 397 599 389 640 q 414 516 404 558 q 434 439 424 474 q 454 379 444 404 q 470 345 463 353 z"},"Z":{"ha":698,"x_min":8,"x_max":862,"o":"m 272 564 l 272 564 q 266 597 268 578 q 263 651 263 615 l 263 651 q 264 698 263 674 q 273 738 265 721 l 273 738 q 378 722 322 729 q 491 708 433 714 q 607 699 549 702 q 719 695 665 695 l 719 695 q 838 701 793 695 l 838 701 q 858 649 854 679 q 862 593 862 619 l 862 593 q 644 474 747 546 q 457 322 541 401 q 312 166 373 243 q 221 32 251 89 l 221 32 q 258 38 239 35 q 299 42 277 40 q 348 46 321 44 q 410 50 375 48 l 410 50 q 496 61 459 53 q 559 77 533 68 q 601 93 585 85 q 623 105 616 100 l 623 105 q 633 78 627 96 q 643 39 638 60 q 650 -5 647 17 q 653 -47 653 -28 l 653 -47 q 653 -60 653 -57 q 651 -68 652 -64 l 651 -68 q 561 -61 606 -65 q 470 -57 515 -57 l 470 -57 q 346 -63 410 -57 q 222 -83 281 -70 q 113 -118 162 -97 q 33 -168 63 -139 l 33 -168 q 17 -123 25 -142 q 8 -79 8 -105 l 8 -79 q 19 -37 8 -53 q 47 -12 29 -22 l 47 -12 q 184 159 107 74 q 347 322 260 243 q 527 473 434 401 q 713 603 620 544 l 713 603 q 586 606 653 606 l 586 606 q 493 604 539 606 q 406 598 447 602 q 331 585 365 593 q 272 564 296 576 z"},"a":{"ha":470,"x_min":83,"x_max":516,"o":"m 442 404 l 442 404 q 466 401 452 404 q 490 392 479 397 q 509 380 501 386 q 516 369 516 374 l 516 369 q 479 285 496 327 q 450 203 462 242 q 432 130 438 164 q 425 71 425 96 l 425 71 q 431 25 425 43 q 451 -2 437 6 l 451 -2 q 420 -15 439 -10 q 386 -20 401 -20 l 386 -20 q 332 54 332 -20 l 332 54 q 370 210 332 111 l 370 210 q 324 124 350 164 q 271 52 298 83 q 217 2 244 21 q 166 -22 189 -18 l 166 -22 q 106 14 129 -20 q 83 99 83 47 l 83 99 q 107 217 83 155 q 169 332 131 279 q 250 421 206 385 q 335 458 294 456 l 335 458 q 358 446 345 455 q 382 425 370 437 q 401 401 393 413 q 410 379 409 388 l 410 379 q 328 340 370 373 q 251 261 285 307 q 194 161 216 214 q 172 62 172 108 l 172 62 q 186 38 172 43 l 186 38 q 253 88 215 44 q 345 222 291 131 l 345 222 q 368 262 355 240 q 393 308 380 284 q 419 357 406 332 q 442 404 431 381 z"},"^":{"ha":361,"x_min":40,"x_max":321,"o":"m 259 713 l 259 713 q 268 612 263 654 q 281 538 273 569 q 298 486 288 507 q 321 449 307 465 l 321 449 q 316 448 321 448 l 316 448 l 312 448 q 253 488 283 448 q 199 587 222 527 l 199 587 q 145 522 173 548 q 94 496 116 496 l 94 496 q 66 503 79 496 q 40 522 52 510 l 40 522 q 111 581 78 544 q 174 675 144 618 l 174 675 l 170 700 q 231 714 190 714 l 231 714 q 249 714 243 714 q 259 713 254 714 z"},"~":{"ha":441,"x_min":138,"x_max":467,"o":"m 138 269 l 138 269 q 183 287 161 283 q 227 291 204 291 l 227 291 q 284 287 256 291 q 339 282 312 282 l 339 282 q 388 286 364 282 q 430 300 412 289 l 430 300 q 454 264 444 286 q 467 221 463 241 l 467 221 q 426 199 447 205 q 381 192 404 192 l 381 192 q 331 198 352 192 q 289 212 310 204 q 244 225 268 219 q 182 231 219 231 l 182 231 q 166 231 174 231 q 147 230 157 231 l 147 230 q 141 247 142 237 q 138 269 140 257 z"},"*":{"ha":455,"x_min":266,"x_max":599,"o":"m 435 832 l 435 832 q 503 814 484 831 q 522 773 522 797 l 522 773 q 507 721 522 748 q 473 673 492 693 l 473 673 q 533 683 502 674 q 596 706 563 692 l 596 706 q 599 666 599 691 l 599 666 q 599 644 599 655 q 594 624 598 633 q 580 609 589 615 q 554 603 571 603 l 554 603 q 506 607 530 603 q 457 621 482 610 l 457 621 q 484 569 467 594 q 526 514 501 543 l 526 514 q 488 497 507 503 q 451 491 468 491 l 451 491 q 424 504 434 491 q 409 534 414 516 q 403 570 404 551 q 401 602 401 589 l 401 602 q 401 612 401 607 q 402 621 401 616 l 402 621 q 361 579 379 603 q 323 521 342 555 l 323 521 q 308 536 316 527 q 293 555 300 544 q 280 578 285 565 q 275 604 275 590 l 275 604 q 289 628 275 616 q 322 649 303 639 q 359 665 340 658 q 385 673 377 671 l 385 673 q 333 699 362 688 q 266 717 304 709 l 266 717 q 294 770 277 755 q 329 785 311 785 l 329 785 q 358 778 343 785 q 385 759 372 771 q 409 733 398 747 q 428 703 420 718 l 428 703 q 438 738 435 720 q 440 774 440 756 l 440 774 q 439 803 440 789 q 435 832 437 817 z"},"@":{"ha":655,"x_min":122,"x_max":705,"o":"m 277 472 l 277 472 q 374 531 323 510 q 475 552 424 552 l 475 552 q 563 535 521 552 q 636 491 604 518 q 686 429 667 463 q 705 360 705 394 l 705 360 q 694 303 705 333 q 663 242 682 272 q 619 183 644 211 q 568 134 594 155 q 514 100 541 112 q 465 87 487 87 l 465 87 q 423 98 444 87 q 385 125 402 108 q 358 162 368 141 q 347 203 347 182 l 347 203 q 356 253 347 227 q 383 301 365 278 q 428 342 401 323 q 491 371 455 360 l 491 371 q 526 352 509 364 q 555 325 542 340 q 576 294 568 310 q 585 261 584 277 l 585 261 q 545 269 566 269 l 545 269 q 506 260 524 269 q 474 237 487 251 q 452 205 460 223 q 444 167 444 186 l 444 167 q 472 139 444 139 l 472 139 q 532 164 498 139 q 596 226 566 189 q 647 304 626 263 q 668 376 668 344 l 668 376 q 659 415 668 397 q 633 447 649 433 q 594 468 616 460 q 547 475 572 475 l 547 475 q 441 444 495 475 q 343 363 387 412 q 270 252 298 313 q 242 132 242 191 l 242 132 q 253 63 242 95 q 284 7 264 31 q 330 -31 303 -17 q 387 -45 356 -45 l 387 -45 q 485 -13 431 -45 q 616 91 538 19 l 616 91 q 623 78 621 82 q 624 69 624 74 l 624 69 q 563 10 594 39 q 500 -41 532 -19 q 433 -77 467 -64 q 362 -91 398 -91 l 362 -91 q 269 -65 312 -91 q 193 1 225 -39 q 141 88 160 40 q 122 178 122 135 l 122 178 q 132 245 122 207 q 160 322 141 282 q 209 400 179 361 q 277 472 238 439 z"},"b":{"ha":472,"x_min":110,"x_max":544,"o":"m 189 -7 l 189 -7 q 279 73 235 24 q 359 178 323 121 q 420 295 395 234 q 454 412 445 356 l 454 412 q 441 428 454 424 l 441 428 q 403 404 427 428 q 349 341 378 379 q 289 256 319 303 q 233 163 258 209 q 191 76 208 116 q 171 10 173 35 l 171 10 q 154 30 161 10 l 154 30 q 147 41 152 35 q 131 54 142 46 l 131 54 q 121 64 126 58 q 114 73 116 69 l 114 73 q 110 99 110 81 l 110 99 q 125 232 110 158 q 165 383 140 306 q 222 535 189 460 q 291 671 255 609 q 362 776 326 733 q 430 833 398 819 l 430 833 q 454 823 440 830 q 482 807 468 816 q 509 789 496 798 q 527 773 521 780 l 527 773 q 337 545 417 684 q 205 215 256 405 l 205 215 q 268 316 233 267 q 338 401 303 364 q 404 460 372 438 q 456 482 435 482 l 456 482 q 487 468 472 478 q 514 444 502 458 q 534 413 526 429 q 544 378 542 396 l 544 378 q 530 289 543 336 q 494 195 516 241 q 443 107 471 149 q 383 34 414 65 q 320 -17 351 2 q 260 -36 288 -36 l 260 -36 q 236 -33 248 -36 q 213 -26 223 -31 q 196 -17 202 -22 q 189 -7 189 -12 z"},"|":{"ha":276,"x_min":98,"x_max":490,"o":"m 180 -130 l 98 -88 q 113 54 99 -28 q 149 225 127 135 q 200 408 171 315 q 259 582 228 500 q 320 729 289 663 q 378 830 351 794 l 378 830 q 408 820 390 828 q 442 803 425 812 q 473 783 459 793 q 490 767 486 773 l 490 767 q 411 654 448 721 q 343 509 374 587 q 285 345 311 430 q 239 175 259 259 q 204 12 218 90 q 180 -130 189 -66 l 180 -130 z"},"{":{"ha":335,"x_min":121,"x_max":518,"o":"m 448 812 l 448 812 q 480 804 465 812 q 518 772 495 796 l 518 772 q 467 736 487 757 q 434 688 447 714 q 413 632 421 662 q 397 570 404 602 l 397 570 q 380 504 389 537 q 353 440 370 470 q 310 387 336 410 q 243 349 284 363 l 243 349 q 298 297 278 328 q 318 222 318 265 l 318 222 q 303 140 318 183 q 271 56 288 97 q 238 -20 253 15 q 223 -79 223 -55 l 223 -79 q 247 -122 223 -108 q 310 -146 270 -137 l 310 -146 l 302 -162 q 248 -150 277 -158 q 193 -129 218 -143 q 151 -93 168 -115 q 134 -41 134 -72 l 134 -41 q 149 26 134 -11 q 180 101 163 62 q 212 180 197 140 q 226 254 226 219 l 226 254 q 201 316 226 300 q 136 332 175 332 l 136 332 q 126 342 129 336 q 121 352 122 347 l 121 352 l 156 368 q 221 420 199 387 q 256 492 243 452 q 277 578 268 532 q 304 669 286 623 l 304 669 q 331 726 316 700 q 364 771 346 752 q 403 801 382 790 q 448 812 424 812 z"},"}":{"ha":335,"x_min":28,"x_max":425,"o":"m 98 -162 l 98 -162 q 66 -154 81 -162 q 28 -122 51 -146 l 28 -122 q 79 -85 59 -107 q 112 -38 99 -64 q 133 18 125 -12 q 149 80 141 48 l 149 80 q 167 147 157 113 q 193 210 176 180 q 236 264 210 240 q 303 301 262 287 l 303 301 q 248 354 268 322 q 228 428 228 385 l 228 428 q 243 510 228 467 q 276 594 258 553 q 308 670 293 635 q 323 729 323 705 l 323 729 q 300 773 323 758 q 236 796 276 787 l 236 796 l 244 812 q 299 801 269 808 q 353 779 328 793 q 395 744 378 765 q 412 691 412 722 l 412 691 q 398 625 412 661 q 366 549 383 588 q 335 471 349 510 q 320 396 320 431 l 320 396 q 346 334 320 350 q 410 318 371 318 l 410 318 q 421 309 417 314 q 425 298 424 303 l 425 298 l 390 282 q 325 230 347 262 q 291 158 303 198 q 269 73 278 118 q 242 -19 260 27 l 242 -19 q 182 -121 219 -81 q 98 -162 145 -162 z"},"[":{"ha":386,"x_min":45,"x_max":590,"o":"m 522 791 l 522 791 q 578 778 565 791 q 590 745 590 764 l 590 745 q 589 737 590 740 q 586 726 588 733 l 586 726 q 524 729 556 729 l 524 729 q 502 729 515 729 q 475 729 489 729 q 447 727 461 728 q 422 725 432 726 l 422 725 q 407 669 418 708 q 379 577 395 630 q 341 462 362 524 q 294 336 319 400 l 294 336 q 238 192 265 262 q 191 64 211 122 q 157 -35 170 6 q 144 -92 144 -76 l 144 -92 q 180 -82 159 -88 q 224 -72 201 -77 q 270 -63 247 -67 q 311 -60 293 -60 l 311 -60 q 358 -73 346 -60 q 370 -105 370 -86 l 370 -105 q 369 -113 370 -110 q 366 -124 368 -117 l 366 -124 q 306 -121 336 -121 l 306 -121 q 219 -126 263 -121 q 126 -140 174 -132 l 126 -140 q 84 -107 103 -132 q 45 -49 65 -82 l 45 -49 q 72 17 53 -31 q 115 127 91 64 q 164 261 138 190 q 212 393 190 331 l 212 393 q 270 562 248 494 q 305 672 292 629 q 324 737 318 714 q 331 770 329 759 l 331 770 q 385 779 356 775 q 439 786 413 783 q 487 790 465 788 q 522 791 509 791 z"},"]":{"ha":385,"x_min":7,"x_max":552,"o":"m 75 -140 l 75 -140 q 20 -126 32 -140 q 7 -94 7 -113 l 7 -94 q 8 -85 7 -89 q 11 -75 9 -82 l 11 -75 q 73 -78 41 -78 l 73 -78 q 95 -78 82 -78 q 122 -77 108 -78 q 150 -76 136 -77 q 175 -74 164 -75 l 175 -74 q 191 -18 179 -57 q 219 74 202 21 q 257 189 235 127 q 303 315 278 251 l 303 315 q 359 459 332 389 q 407 587 386 529 q 440 686 427 645 q 453 743 453 727 l 453 743 q 417 734 438 739 q 373 723 396 728 q 327 715 350 718 q 286 711 304 711 l 286 711 q 239 724 251 711 q 227 756 227 737 l 227 756 q 228 765 227 761 q 231 775 229 768 l 231 775 q 291 772 261 772 l 291 772 q 379 778 334 772 q 471 791 423 783 l 471 791 q 513 758 494 783 q 552 700 532 733 l 552 700 q 525 635 544 682 q 483 524 506 587 q 433 391 459 461 q 385 258 407 320 l 385 258 q 327 90 349 157 q 292 -20 304 22 q 274 -85 279 -63 q 266 -119 268 -108 l 266 -119 q 212 -128 240 -124 q 158 -134 184 -132 q 110 -138 132 -137 q 75 -140 88 -140 z"},"c":{"ha":420,"x_min":103,"x_max":487,"o":"m 103 176 l 103 176 q 127 287 103 233 q 189 382 150 340 q 277 449 227 423 q 379 474 326 474 l 379 474 q 459 448 431 474 q 487 374 487 422 l 487 374 q 481 330 487 351 q 464 291 474 308 q 439 264 453 274 q 411 253 425 253 l 411 253 q 387 261 399 253 q 366 280 374 268 l 366 280 q 433 391 433 341 l 433 391 q 410 420 433 420 l 410 420 q 360 401 390 420 q 302 351 330 382 l 302 351 q 237 245 259 303 q 214 122 214 186 l 214 122 q 250 25 214 41 l 250 25 q 285 34 265 27 q 328 53 305 41 q 376 79 351 64 q 423 111 400 94 l 423 111 q 430 102 427 108 q 433 91 433 96 l 433 91 q 394 50 416 70 q 348 14 372 30 q 302 -14 324 -3 q 262 -29 279 -26 l 262 -29 q 200 -8 229 -26 q 150 37 171 9 q 116 101 128 65 q 103 176 103 137 z"},":":{"ha":285,"x_min":87,"x_max":348,"o":"m 143 -38 l 143 -38 q 110 -24 127 -36 q 87 1 92 -13 l 87 1 q 91 32 87 13 q 99 71 94 51 q 109 108 104 90 q 116 134 114 125 l 116 134 q 147 128 128 134 q 185 112 165 122 q 222 88 204 101 q 248 60 239 74 l 248 60 q 225 22 239 40 q 196 -9 211 4 q 166 -30 180 -23 q 143 -38 152 -38 z m 243 280 l 243 280 q 210 294 227 282 q 187 319 192 305 l 187 319 q 191 350 187 331 q 199 389 194 369 q 209 426 204 408 q 216 452 214 443 l 216 452 q 247 446 228 452 q 285 430 265 440 q 322 406 304 419 q 348 378 339 392 l 348 378 q 325 340 339 358 q 296 309 311 322 q 266 288 280 295 q 243 280 252 280 z"},",":{"ha":240,"x_min":1,"x_max":224,"o":"m 17 -169 l 17 -169 q 6 -152 11 -164 q 1 -131 1 -141 l 1 -131 q 73 -49 51 -88 q 94 36 94 -10 l 94 36 q 92 88 94 66 q 82 137 89 109 l 82 137 q 132 129 107 135 q 176 113 156 122 q 208 91 195 103 q 224 66 221 78 l 224 66 q 17 -169 177 -100 z"},"d":{"ha":433,"x_min":79,"x_max":504,"o":"m 315 467 l 315 467 q 361 455 335 467 q 407 424 387 443 l 407 424 q 395 500 402 464 q 373 573 387 535 q 334 656 358 611 q 274 759 310 701 l 274 759 q 288 780 277 768 q 312 803 298 792 q 340 821 325 813 q 367 831 354 829 l 367 831 q 420 754 395 800 q 464 654 445 707 q 494 543 483 600 q 504 434 504 486 l 504 434 q 493 327 504 382 q 461 220 481 272 q 413 120 440 167 q 355 36 386 73 q 289 -24 323 -1 q 221 -54 255 -48 l 221 -54 q 116 -9 152 -46 q 79 91 79 27 l 79 91 q 90 165 79 125 q 118 245 100 205 q 159 322 135 284 q 209 389 182 359 q 262 440 235 419 q 315 467 289 461 z m 213 -14 l 213 -14 q 283 39 248 -2 q 346 136 318 80 q 392 255 374 191 q 409 377 409 318 l 409 377 q 409 398 409 394 q 408 406 409 402 l 408 406 q 357 372 384 396 q 303 317 330 348 q 252 248 276 285 q 209 174 228 211 q 179 103 190 137 q 168 43 168 69 l 168 43 q 213 -14 168 -7 z"},"e":{"ha":404,"x_min":87,"x_max":455,"o":"m 455 414 l 455 414 q 433 308 451 352 q 382 230 415 263 q 300 169 348 196 q 188 117 252 142 l 188 117 q 188 105 188 111 q 187 91 187 98 l 187 91 q 189 64 187 78 q 196 38 191 50 q 210 19 201 26 q 233 11 219 11 l 233 11 q 286 23 260 11 q 336 53 312 35 q 380 91 359 70 q 416 128 400 111 l 416 128 q 433 111 426 119 l 433 111 q 335 12 388 51 q 233 -39 281 -28 l 233 -39 q 126 12 164 -31 q 87 114 87 54 l 87 114 q 99 198 87 155 q 131 280 110 240 q 179 354 151 319 q 238 415 206 389 q 303 456 269 441 q 369 471 336 471 l 369 471 q 455 414 415 465 z m 386 381 l 386 381 q 330 359 359 377 q 276 311 301 341 q 229 241 250 281 q 196 155 208 201 l 196 155 q 329 254 276 195 q 386 381 382 312 z"},"=":{"ha":570,"x_min":126,"x_max":600,"o":"m 196 93 l 196 93 q 144 111 162 93 q 126 154 126 128 l 126 154 q 128 173 126 163 q 134 192 129 182 l 134 192 q 166 188 151 190 q 204 186 180 186 l 204 186 q 300 189 255 186 q 381 195 345 192 q 443 201 417 198 q 483 204 469 204 l 483 204 q 516 181 502 204 q 537 117 530 158 l 537 117 q 497 120 512 119 q 469 121 481 121 l 469 121 q 389 117 426 121 q 319 107 352 112 q 256 98 286 102 q 196 93 226 93 z m 258 288 l 258 288 q 209 306 227 288 q 190 352 190 323 l 190 352 q 192 369 190 359 q 196 385 194 379 l 196 385 q 228 381 213 383 q 267 379 243 379 l 267 379 q 363 382 318 379 q 443 389 407 385 q 505 396 479 393 q 545 399 531 399 l 545 399 q 579 377 564 399 q 600 312 593 354 l 600 312 q 559 316 575 315 q 531 317 543 317 l 531 317 q 451 313 488 317 q 381 303 414 308 q 318 293 348 297 q 258 288 288 288 z"},"!":{"ha":300,"x_min":60,"x_max":520,"o":"m 143 188 l 143 188 q 158 267 143 215 q 195 381 172 318 q 247 510 218 443 q 306 634 276 576 q 362 735 335 692 q 409 791 389 777 l 409 791 q 444 777 425 788 q 478 751 462 765 q 506 720 494 736 q 520 692 518 704 l 520 692 q 419 588 469 650 q 327 449 369 525 q 252 287 284 373 q 204 110 220 200 l 204 110 q 181 118 192 113 q 161 130 169 122 q 148 152 153 138 q 143 188 143 166 z m 121 -77 l 121 -77 q 98 -71 109 -77 q 79 -58 87 -66 q 65 -42 70 -51 q 60 -29 60 -34 l 60 -29 q 63 2 60 -17 q 72 39 66 21 q 87 69 78 56 q 107 81 96 81 l 107 81 q 164 62 135 81 q 206 18 192 42 l 206 18 q 185 -11 194 5 q 167 -42 176 -28 q 147 -67 158 -57 q 121 -77 136 -77 z"},"f":{"ha":342,"x_min":88,"x_max":641,"o":"m 152 -289 l 152 -289 q 122 -251 127 -279 l 122 -251 q 88 -207 118 -224 l 88 -207 q 106 -104 96 -156 q 132 15 116 -52 q 171 170 147 81 q 230 384 194 258 l 230 384 q 178 383 197 384 q 141 379 159 382 l 141 379 q 135 390 137 383 q 132 403 132 397 l 132 403 q 173 414 142 407 q 241 425 204 420 l 241 425 q 296 562 265 501 q 363 665 327 622 q 439 731 399 708 q 520 754 479 754 l 520 754 q 543 753 532 754 q 560 751 554 751 l 560 751 q 584 764 569 758 q 610 769 599 769 l 610 769 q 641 756 622 769 l 641 756 q 624 718 633 742 q 609 671 615 694 l 609 671 q 556 575 584 597 l 556 575 q 544 604 545 575 l 544 604 q 538 645 543 625 l 538 645 q 533 661 534 654 q 531 679 531 668 l 531 679 q 532 694 531 685 q 536 722 533 702 l 536 722 q 499 701 519 722 q 456 642 478 680 q 410 550 433 603 q 366 433 387 497 l 366 433 l 450 436 q 459 414 455 431 q 463 377 462 396 l 463 377 l 353 383 q 282 167 315 270 q 223 -23 249 64 q 179 -178 197 -110 q 152 -289 160 -247 z"},"g":{"ha":450,"x_min":-105,"x_max":523,"o":"m -105 -298 l -105 -298 q -101 -287 -105 -292 q -92 -277 -97 -282 l -92 -277 q -71 -294 -80 -288 q -55 -304 -63 -300 q -40 -309 -48 -308 q -21 -310 -32 -310 l -21 -310 q 78 -282 31 -310 q 167 -203 125 -255 q 242 -76 208 -151 q 302 94 276 -1 l 302 94 q 273 68 290 82 q 236 40 255 53 q 199 16 217 27 q 167 0 180 5 l 167 0 q 136 15 150 3 q 110 43 121 26 q 93 82 99 60 q 87 127 87 103 l 87 127 q 102 207 87 166 q 140 288 116 248 q 197 362 164 327 q 266 423 229 397 q 340 465 302 449 q 413 480 377 480 l 413 480 q 466 466 448 480 q 491 416 483 451 l 491 416 q 463 422 480 422 l 463 422 q 408 403 439 422 q 344 354 376 384 q 279 284 311 323 q 223 203 247 244 q 183 123 198 162 q 167 53 167 84 l 167 53 q 168 45 167 46 q 171 43 169 43 l 171 43 q 196 53 180 43 q 231 79 211 63 q 271 115 250 94 q 311 156 292 135 l 311 156 q 390 264 354 204 q 446 379 425 323 l 446 379 q 494 370 473 377 q 523 355 515 363 l 523 355 q 469 224 489 277 q 433 130 448 171 l 433 130 q 383 -1 406 58 q 335 -111 359 -61 q 282 -205 310 -162 q 217 -289 253 -249 l 217 -289 q 179 -322 200 -308 q 135 -347 157 -337 q 91 -362 112 -357 q 51 -367 69 -367 l 51 -367 q 2 -361 27 -367 q -44 -346 -23 -356 q -82 -324 -66 -337 q -105 -298 -98 -312 z"},"`":{"ha":285,"x_min":20,"x_max":265,"o":"m 78 729 l 78 729 q 123 664 99 694 q 171 610 146 634 q 219 569 195 586 q 265 544 243 552 l 265 544 q 210 525 242 525 l 210 525 q 177 530 194 525 q 138 545 160 534 q 87 572 115 555 q 20 615 58 589 l 20 615 q 25 646 20 629 q 39 680 30 663 q 57 710 47 696 q 78 729 67 723 z"},">":{"ha":623,"x_min":128,"x_max":656,"o":"m 318 550 l 318 550 q 399 520 361 538 q 471 479 437 501 q 535 430 504 456 q 594 375 565 403 l 594 375 q 636 319 616 353 q 656 244 656 284 l 656 244 q 653 216 656 229 l 653 216 q 620 206 640 208 q 574 203 599 203 l 574 203 q 514 205 545 203 q 456 206 483 206 l 456 206 q 389 203 420 206 q 323 194 357 200 q 251 177 289 187 q 161 153 212 167 l 161 153 q 128 232 128 199 l 128 232 q 156 277 128 262 q 229 293 183 291 l 229 293 q 310 296 262 294 q 406 299 357 297 q 498 301 454 300 q 567 302 541 302 l 567 302 q 562 319 565 311 q 550 338 558 327 q 528 363 541 348 q 493 398 514 377 l 493 398 q 449 437 473 417 q 397 473 424 456 q 341 504 370 490 q 284 527 312 518 l 284 527 q 299 542 287 535 q 318 550 310 549 z"},"h":{"ha":517,"x_min":96,"x_max":617,"o":"m 96 17 l 96 17 q 103 100 96 52 q 124 201 110 147 q 156 314 137 255 q 197 432 174 373 l 197 432 q 244 539 217 485 q 301 645 270 593 q 366 744 332 697 q 433 830 399 791 l 433 830 q 468 826 449 830 q 504 816 486 822 q 536 800 521 809 q 559 782 550 791 l 559 782 q 424 627 484 705 q 329 479 364 548 l 329 479 q 295 408 310 441 q 266 343 279 375 q 243 278 253 310 q 223 209 232 245 l 223 209 q 508 454 415 454 l 508 454 q 564 437 534 454 q 617 391 594 420 l 617 391 q 553 309 586 357 q 493 213 520 261 q 448 123 465 164 q 430 61 430 81 l 430 61 q 433 48 430 51 q 446 44 436 44 l 446 44 q 470 48 461 44 q 481 52 479 52 l 481 52 q 487 41 486 44 q 488 36 488 38 l 488 36 q 476 25 488 32 q 448 10 464 17 q 415 -4 431 2 q 391 -10 399 -10 l 391 -10 q 371 -4 381 -10 q 354 10 361 1 q 342 30 346 19 q 337 53 337 41 l 337 53 q 346 98 337 68 q 369 167 354 127 q 405 253 384 206 q 450 349 426 300 l 450 349 q 446 353 450 353 l 446 353 q 431 345 443 353 q 407 329 418 337 l 407 329 q 335 263 371 302 q 264 176 298 223 q 199 77 229 129 q 146 -29 168 24 l 146 -29 q 137 -42 143 -36 q 127 -48 131 -48 l 127 -48 q 119 -41 124 -48 q 109 -23 113 -34 q 100 -2 104 -13 q 96 17 96 9 z"},"-":{"ha":526,"x_min":136,"x_max":546,"o":"m 204 186 l 204 186 q 155 204 173 186 q 136 252 136 221 l 136 252 q 138 267 136 257 q 142 282 140 277 l 142 282 q 174 279 159 279 q 213 278 189 278 l 213 278 q 309 281 264 278 q 389 288 353 284 q 451 295 425 292 q 491 298 477 298 l 491 298 q 525 275 510 298 q 546 209 539 252 l 546 209 q 505 213 521 212 q 477 214 489 214 l 477 214 q 397 210 434 214 q 327 200 360 205 q 264 191 294 195 q 204 186 234 186 z"},"i":{"ha":236,"x_min":98,"x_max":432,"o":"m 98 67 l 98 67 q 100 90 98 76 q 105 126 101 103 q 116 180 109 148 q 132 257 122 212 l 132 257 q 141 289 134 267 q 160 336 148 311 q 188 383 171 360 q 227 417 204 406 l 227 417 q 272 397 244 413 q 320 351 300 380 l 320 351 q 282 299 297 325 q 254 245 266 273 q 231 187 241 217 q 207 124 220 157 l 207 124 q 187 67 196 96 q 177 15 178 37 l 177 15 q 177 -10 177 -3 q 171 -18 176 -18 l 171 -18 q 155 -13 167 -18 q 131 3 143 -8 q 108 29 118 13 q 98 67 98 45 z m 289 501 l 289 501 q 292 519 289 507 l 292 519 q 284 534 287 524 q 280 552 280 544 l 280 552 q 283 577 280 561 q 289 610 285 592 q 299 648 293 628 q 311 683 305 667 l 311 683 q 341 677 323 683 q 376 660 358 670 q 409 637 394 649 q 432 613 424 624 l 432 613 q 403 583 421 602 q 368 542 385 563 q 337 501 351 520 q 319 474 323 482 l 319 474 q 298 485 307 476 q 289 501 289 493 z"},"j":{"ha":236,"x_min":-208,"x_max":425,"o":"m 119 187 l 119 187 q 192 404 156 335 q 266 472 227 472 l 266 472 q 333 445 294 472 l 333 445 q 284 351 301 388 q 258 282 266 313 l 258 282 q 222 158 241 222 q 185 34 203 93 q 151 -72 166 -25 q 126 -145 135 -120 l 126 -145 q 83 -245 104 -204 q 38 -312 61 -286 q -10 -350 15 -338 q -66 -362 -36 -362 l -66 -362 q -109 -357 -88 -362 q -150 -345 -131 -353 q -184 -327 -169 -338 q -208 -304 -199 -316 l -208 -304 q -201 -290 -207 -297 q -191 -283 -196 -284 l -191 -283 q -155 -309 -174 -301 q -111 -317 -137 -317 l -111 -317 q -54 -298 -79 -317 q -5 -224 -30 -279 q 49 -71 20 -170 q 119 187 78 27 z m 282 551 l 282 551 q 285 568 282 556 l 285 568 q 273 602 273 580 l 273 602 q 276 627 273 611 q 283 662 278 643 q 293 699 287 680 q 304 732 298 718 l 304 732 q 334 726 316 732 q 369 709 351 719 q 402 686 387 698 q 425 662 417 673 l 425 662 q 395 631 413 651 q 360 590 377 611 q 329 550 343 568 q 312 523 315 531 l 312 523 q 291 534 300 525 q 282 551 282 542 z"},"k":{"ha":516,"x_min":99,"x_max":555,"o":"m 99 94 l 99 94 q 118 194 99 130 q 166 334 136 258 q 234 491 196 410 q 311 642 272 572 q 385 763 349 712 q 445 832 420 814 l 445 832 q 476 820 459 831 q 506 794 492 809 q 530 761 520 778 q 539 730 539 744 l 539 730 q 448 638 494 694 q 359 514 401 581 q 282 371 317 446 q 222 222 246 295 l 222 222 q 289 322 254 277 q 359 399 324 367 q 428 449 394 431 q 491 467 461 466 l 491 467 q 535 382 535 435 l 535 382 q 522 318 535 350 q 488 258 509 285 q 439 211 466 230 q 381 185 411 191 l 381 185 q 407 114 391 150 q 444 44 422 78 q 493 -19 465 10 q 555 -68 520 -48 l 555 -68 q 540 -88 550 -78 q 516 -105 530 -98 q 486 -117 502 -113 q 453 -122 469 -122 l 453 -122 q 403 -95 426 -122 q 360 -17 379 -68 l 360 -17 q 331 81 345 24 q 306 200 317 138 l 306 200 q 341 227 320 209 q 385 267 362 244 l 385 267 q 473 414 473 352 l 473 414 q 462 422 473 422 l 462 422 q 415 403 442 421 q 358 353 388 385 q 296 278 327 321 q 235 185 264 235 l 235 185 q 213 139 223 165 q 196 86 203 113 q 184 31 188 58 q 180 -19 180 4 l 180 -19 q 183 -42 180 -33 l 183 -42 q 145 -26 152 -39 l 145 -26 q 132 -6 137 -14 q 120 6 126 1 l 120 6 q 105 36 111 13 q 99 94 99 59 z"},"l":{"ha":236,"x_min":96,"x_max":511,"o":"m 96 64 l 96 64 q 117 188 96 108 q 176 373 138 267 l 176 373 q 293 655 238 542 q 399 830 347 767 l 399 830 q 429 820 411 828 q 463 803 446 812 q 494 783 480 793 q 511 767 507 773 l 511 767 q 374 569 433 675 q 266 326 315 463 l 266 326 q 202 114 224 208 q 180 -44 180 19 l 180 -44 q 180 -65 180 -61 q 181 -73 180 -69 l 181 -73 q 157 -66 167 -71 q 144 -54 147 -61 l 144 -54 q 133 -39 142 -49 q 117 -25 124 -30 l 117 -25 q 102 7 108 -19 q 96 64 96 32 z"},"<":{"ha":516,"x_min":114,"x_max":553,"o":"m 533 191 l 533 191 q 419 168 472 177 q 309 158 366 158 l 309 158 q 257 161 285 158 q 202 172 229 163 q 152 197 175 181 q 114 240 129 213 l 114 240 q 133 270 118 254 q 166 304 147 286 q 207 338 185 321 q 247 372 228 355 l 247 372 q 298 422 275 397 q 342 474 320 446 q 386 536 363 501 q 438 616 409 570 l 438 616 q 483 609 462 616 q 520 590 504 601 q 544 564 535 578 q 553 536 553 550 l 553 536 q 551 514 553 525 q 547 493 549 503 l 547 493 q 533 498 541 498 l 533 498 q 502 483 523 498 q 454 445 481 468 q 397 391 427 421 q 336 332 366 361 q 280 276 306 302 q 236 233 254 250 l 236 233 q 252 224 243 228 q 275 217 261 220 q 310 213 289 214 q 362 211 331 211 l 362 211 q 408 213 382 211 q 458 218 433 215 q 506 224 483 221 q 543 230 528 227 l 543 230 q 544 222 544 227 l 544 222 q 541 205 544 214 q 533 191 537 196 z"},"m":{"ha":765,"x_min":86,"x_max":821,"o":"m 675 307 l 675 307 q 636 287 659 306 q 587 237 613 267 q 532 169 560 206 q 477 96 503 132 q 427 27 450 59 q 388 -24 404 -5 l 388 -24 q 350 3 366 -15 q 327 46 334 20 l 327 46 q 341 111 332 77 q 365 180 350 144 q 401 256 379 216 q 453 339 422 295 l 453 339 q 412 318 438 338 q 356 265 386 297 q 294 192 326 232 q 234 112 262 151 l 234 112 q 173 21 197 60 q 137 -25 148 -18 l 137 -25 q 101 16 111 -6 q 86 65 91 38 l 86 65 q 94 125 87 89 q 112 199 100 161 l 112 199 q 172 344 135 272 q 242 476 208 416 l 242 476 q 293 457 270 470 q 340 419 315 444 l 340 419 q 309 354 330 388 q 265 281 288 319 q 223 203 242 243 q 198 122 204 163 l 198 122 q 265 214 226 162 q 344 312 303 266 q 424 390 384 358 q 496 422 464 422 l 496 422 q 522 418 508 422 q 548 408 536 414 q 568 397 560 402 q 577 388 576 391 l 577 388 q 554 334 572 368 q 514 261 535 299 q 475 188 493 223 q 454 131 457 152 l 454 131 q 546 253 503 198 q 627 346 589 307 q 698 406 665 385 q 759 427 730 427 l 759 427 q 797 417 779 427 q 821 386 814 406 l 821 386 q 792 314 812 356 q 750 226 771 272 q 713 134 729 179 q 696 53 696 89 l 696 53 q 702 26 696 32 q 719 19 708 19 l 719 19 q 742 24 731 19 q 757 28 752 28 l 757 28 q 764 18 763 24 q 765 7 765 12 l 765 7 q 724 -19 745 -9 q 677 -30 703 -30 l 677 -30 q 638 -22 653 -30 q 612 0 622 -14 q 598 32 602 14 q 594 71 594 50 l 594 71 q 603 139 594 105 q 625 203 612 172 q 651 260 637 233 q 675 307 665 286 z"},"n":{"ha":540,"x_min":75,"x_max":613,"o":"m 259 485 l 259 485 q 308 450 285 477 q 342 389 331 422 l 342 389 q 308 324 331 362 q 262 247 285 286 q 221 172 239 207 q 199 113 202 136 l 199 113 q 235 153 215 130 q 273 198 254 175 q 307 239 291 220 q 332 266 323 257 l 332 266 q 377 313 351 286 q 432 363 403 339 q 489 403 460 386 q 542 419 518 419 l 542 419 q 586 402 568 419 q 613 365 603 384 l 613 365 q 606 360 613 363 q 584 340 598 356 l 584 340 q 553 291 570 322 q 519 223 535 259 q 491 148 502 186 q 480 79 480 110 l 480 79 q 487 47 480 54 q 505 40 493 40 l 505 40 q 528 45 516 40 q 547 50 540 50 l 547 50 q 554 42 551 48 q 556 30 556 35 l 556 30 q 537 16 548 23 q 514 3 526 9 q 491 -7 502 -3 q 470 -11 479 -11 l 470 -11 q 423 -2 441 -11 q 394 20 404 6 q 379 54 383 34 q 375 95 375 73 l 375 95 q 377 122 375 107 q 385 158 379 137 q 402 207 391 178 q 430 275 413 235 l 430 275 q 403 261 428 275 q 349 218 378 247 l 349 218 q 265 129 302 173 q 188 31 227 85 l 188 31 q 150 -21 166 0 q 121 -50 133 -43 l 121 -50 q 90 -16 100 -38 q 75 28 80 5 l 75 28 q 81 76 75 47 q 96 141 86 105 q 119 215 105 176 q 150 293 133 254 l 150 293 q 220 431 188 381 q 259 485 251 481 z"},"o":{"ha":441,"x_min":90,"x_max":490,"o":"m 215 -35 l 215 -35 q 124 15 158 -29 q 90 127 90 59 l 90 127 q 102 210 90 167 q 136 294 114 253 q 188 370 158 334 q 253 432 218 406 l 253 432 q 356 473 308 473 l 356 473 q 419 402 388 456 l 419 402 q 428 403 424 402 q 437 403 432 403 l 437 403 q 490 309 490 403 l 490 309 q 470 190 490 246 q 413 87 449 133 q 326 10 376 41 q 215 -35 275 -22 z m 266 280 l 266 280 q 234 230 249 257 q 208 176 219 203 q 191 123 197 148 q 185 77 185 97 l 185 77 q 193 31 185 53 q 211 6 201 9 l 211 6 q 294 44 256 16 q 359 112 331 71 q 402 205 386 153 q 417 316 417 257 l 417 316 q 414 357 417 342 q 404 383 411 372 l 404 383 q 326 341 360 370 q 266 280 291 312 z"},"p":{"ha":498,"x_min":1,"x_max":559,"o":"m 24 -331 l 24 -331 q 8 -301 10 -327 l 8 -301 q 3 -270 4 -288 q 1 -229 1 -252 l 1 -229 q 8 -171 1 -208 q 28 -89 15 -135 q 58 11 40 -43 q 98 119 76 64 l 98 119 q 145 239 125 188 q 179 326 165 289 q 201 387 192 363 q 214 428 209 411 l 214 428 q 226 457 218 440 q 245 492 234 474 q 266 525 255 509 q 286 548 277 540 l 286 548 q 352 530 321 543 q 390 505 383 517 l 390 505 q 358 465 376 492 q 323 405 340 437 q 292 338 306 372 q 271 278 278 304 l 271 278 q 297 315 281 295 q 346 370 313 335 l 346 370 q 416 429 383 408 q 472 449 448 449 l 472 449 q 535 428 510 449 q 559 374 559 407 l 559 374 q 535 232 559 302 q 466 104 511 161 l 466 104 q 426 62 449 82 q 378 27 403 42 q 329 2 353 11 q 286 -7 305 -7 l 286 -7 q 255 1 268 -7 q 236 19 241 8 l 236 19 q 312 83 275 42 q 381 178 349 124 q 436 293 412 231 q 471 419 459 355 l 471 419 q 403 376 433 399 q 342 314 372 352 l 342 314 q 285 243 306 270 q 251 197 264 216 q 229 162 237 178 q 210 121 220 145 l 210 121 q 178 37 196 89 q 140 -81 159 -16 q 101 -219 120 -146 q 63 -366 81 -293 l 63 -366 q 44 -350 52 -364 l 44 -350 q 33 -337 36 -341 q 24 -331 29 -333 z"},"(":{"ha":319,"x_min":139,"x_max":577,"o":"m 252 -131 l 240 -144 q 199 -85 217 -117 q 167 -15 180 -54 q 146 71 153 23 q 139 177 139 118 l 139 177 q 169 408 139 299 q 248 604 199 516 q 360 755 297 691 q 486 852 422 819 l 486 852 q 516 831 500 846 q 545 799 531 816 q 567 767 558 782 q 577 746 576 752 l 577 746 q 432 674 498 732 q 317 533 365 616 q 241 353 268 450 q 213 164 213 256 l 213 164 q 216 82 213 124 q 223 -1 218 39 q 236 -75 228 -41 q 252 -131 243 -109 l 252 -131 z"},")":{"ha":322,"x_min":-42,"x_max":396,"o":"m 283 789 l 295 802 q 337 744 318 775 q 369 674 355 712 q 389 588 382 635 q 396 481 396 540 l 396 481 q 366 251 396 359 q 287 54 336 142 q 176 -97 238 -34 q 49 -194 113 -161 l 49 -194 q 20 -173 35 -188 q -9 -141 4 -158 q -32 -109 -23 -124 q -42 -88 -41 -94 l -42 -88 q 104 -16 37 -74 q 219 125 170 42 q 295 305 267 208 q 322 494 322 402 l 322 494 q 320 577 322 534 q 312 659 317 619 q 300 733 307 699 q 283 789 292 766 l 283 789 z"},".":{"ha":241,"x_min":69,"x_max":230,"o":"m 125 -38 l 125 -38 q 92 -24 109 -36 q 69 1 74 -13 l 69 1 q 73 32 69 13 q 81 71 76 51 q 91 108 86 90 q 98 134 96 125 l 98 134 q 129 128 110 134 q 167 112 147 122 q 204 88 186 101 q 230 60 221 74 l 230 60 q 207 22 221 40 q 178 -9 193 4 q 148 -30 162 -23 q 125 -38 134 -38 z"},"+":{"ha":557,"x_min":123,"x_max":599,"o":"m 321 39 l 321 39 q 280 55 301 42 q 238 86 258 68 l 238 86 q 254 144 246 115 q 270 200 262 172 l 270 200 q 236 197 253 198 q 202 196 219 196 l 202 196 q 145 214 166 196 q 123 262 123 231 l 123 262 q 126 278 123 267 q 130 293 128 288 l 130 293 q 167 289 149 290 q 212 288 184 288 l 212 288 q 258 288 235 288 q 301 290 280 288 l 301 290 q 348 403 324 353 q 394 481 371 452 l 394 481 q 425 471 406 479 q 463 454 444 463 q 496 434 481 444 q 515 418 511 424 l 515 418 q 472 364 492 393 q 432 299 452 334 l 432 299 q 495 305 468 302 q 535 308 521 308 l 535 308 q 574 285 557 308 q 599 219 591 262 l 599 219 q 552 223 570 222 q 519 224 533 224 l 519 224 q 451 222 483 224 q 389 215 418 219 l 389 215 q 353 129 370 173 q 321 39 336 85 z"},"q":{"ha":452,"x_min":92,"x_max":556,"o":"m 497 444 l 497 444 q 531 437 513 444 q 556 418 548 429 l 556 418 q 494 291 519 343 q 450 200 468 239 q 417 129 431 160 q 389 65 403 98 l 389 65 q 344 -48 365 9 q 307 -161 323 -106 q 278 -268 290 -217 q 259 -363 265 -320 l 259 -363 q 241 -367 255 -367 l 241 -367 q 230 -364 235 -367 q 223 -357 224 -361 l 223 -357 q 216 -347 221 -352 q 202 -340 210 -342 l 202 -340 q 189 -330 194 -338 q 181 -314 183 -323 l 181 -314 q 286 84 192 -138 l 286 84 q 226 29 251 49 q 187 6 200 8 l 187 6 q 157 21 173 6 q 126 56 140 35 q 102 102 111 77 q 92 146 92 126 l 92 146 q 106 216 92 172 q 141 302 120 259 l 141 302 q 379 490 221 461 l 379 490 q 408 482 393 488 q 434 465 422 475 q 455 443 446 455 q 465 420 463 431 l 465 420 q 479 435 467 426 q 497 444 491 444 z m 318 177 l 318 177 q 376 263 351 222 q 418 336 401 304 l 418 336 q 453 406 438 373 l 453 406 q 437 412 450 409 q 412 415 423 415 l 412 415 q 351 389 386 415 q 287 324 315 363 l 287 324 q 211 187 237 255 q 184 61 184 119 l 184 61 q 193 54 184 54 l 193 54 q 259 109 229 80 q 318 177 289 138 z"},"?":{"ha":480,"x_min":130,"x_max":615,"o":"m 413 777 l 413 777 q 489 757 452 774 q 553 714 525 740 q 598 654 581 688 q 615 583 615 620 l 615 583 q 602 512 615 545 q 562 445 588 479 q 498 375 536 411 q 412 292 460 338 l 412 292 q 341 203 365 248 q 317 120 317 157 l 317 120 q 318 110 317 115 q 319 99 318 105 l 319 99 q 283 107 302 100 q 247 126 264 114 q 216 151 229 137 q 196 178 202 164 l 196 178 q 207 234 196 201 q 241 302 218 266 q 299 373 263 337 q 383 438 334 409 l 383 438 q 501 529 462 485 q 540 608 540 573 l 540 608 q 534 639 540 624 q 517 666 527 654 q 494 686 507 678 q 467 693 480 693 l 467 693 q 434 678 452 693 q 399 641 415 663 q 372 593 383 619 q 361 546 361 567 l 361 546 q 364 528 361 532 l 364 528 q 351 526 356 526 q 341 526 346 526 l 341 526 q 302 530 321 526 q 266 540 282 534 q 238 555 249 546 q 223 572 226 563 l 223 572 q 251 640 230 605 q 299 705 272 675 q 356 754 326 734 q 413 777 386 774 z m 192 -77 l 192 -77 q 174 -73 184 -77 q 154 -63 163 -70 q 137 -45 144 -56 q 130 -19 130 -34 l 130 -19 q 133 7 130 -10 q 143 40 136 23 q 159 69 149 56 q 184 81 169 81 l 184 81 q 207 76 193 81 q 233 62 220 70 q 258 42 246 53 q 276 18 270 30 l 276 18 q 256 -10 265 6 q 237 -42 246 -27 q 217 -67 228 -57 q 192 -77 206 -77 z"},"\"":{"ha":367,"x_min":229,"x_max":570,"o":"m 245 507 l 245 507 q 234 523 239 512 q 229 545 229 534 l 229 545 q 252 626 241 580 q 262 727 262 671 l 262 727 q 260 778 262 752 q 250 833 257 804 l 250 833 q 338 813 298 830 q 390 770 377 795 l 390 770 q 338 612 373 679 q 245 507 303 545 z m 425 507 l 425 507 q 414 523 419 512 q 409 545 409 534 l 409 545 q 432 626 421 580 q 442 727 442 671 l 442 727 q 440 778 442 752 q 430 833 437 804 l 430 833 q 518 813 478 830 q 570 770 557 795 l 570 770 q 518 612 553 679 q 425 507 483 545 z"},"'":{"ha":187,"x_min":229,"x_max":390,"o":"m 245 507 l 245 507 q 234 523 239 512 q 229 545 229 534 l 229 545 q 252 626 241 580 q 262 727 262 671 l 262 727 q 260 778 262 752 q 250 833 257 804 l 250 833 q 338 813 298 830 q 390 770 377 795 l 390 770 q 338 612 373 679 q 245 507 303 545 z"},"r":{"ha":403,"x_min":73,"x_max":488,"o":"m 73 20 l 73 20 q 91 97 78 49 q 120 198 103 144 q 156 305 137 251 q 193 402 175 359 l 193 402 q 216 451 206 433 q 238 480 226 468 l 238 480 q 267 473 252 478 q 296 461 282 468 q 321 447 310 454 q 338 432 332 439 l 338 432 q 291 359 311 400 q 249 254 270 318 l 249 254 q 345 346 303 302 q 422 444 386 390 l 422 444 q 443 449 428 449 l 443 449 q 470 445 457 449 q 488 432 483 440 l 488 432 q 470 337 470 384 l 470 337 q 483 271 470 293 l 483 271 q 470 248 482 265 q 442 216 457 231 l 442 216 q 394 255 415 230 q 363 308 373 279 l 363 308 q 283 244 316 275 q 227 174 250 212 q 187 85 203 135 q 155 -34 170 35 l 155 -34 q 134 -27 146 -33 q 109 -14 121 -22 q 86 3 96 -6 q 73 20 76 12 z"},"s":{"ha":346,"x_min":20,"x_max":442,"o":"m 442 398 l 442 398 q 436 359 441 379 q 422 322 430 338 q 405 294 414 305 q 388 283 396 283 l 388 283 q 375 298 377 284 l 375 298 q 378 308 375 301 q 383 322 380 314 q 389 338 386 330 q 391 352 391 346 l 391 352 q 385 376 391 366 q 367 385 378 385 l 367 385 q 306 335 327 385 q 285 188 285 285 l 285 188 q 286 176 285 178 l 286 176 q 324 178 307 177 q 356 178 340 178 l 356 178 q 357 170 357 176 l 357 170 q 353 157 357 161 l 353 157 q 317 149 330 152 q 296 142 303 145 q 288 136 289 139 q 286 126 286 132 l 286 126 q 287 110 286 118 q 287 90 287 102 l 287 90 q 242 -45 287 6 q 115 -104 196 -96 l 115 -104 q 86 -96 101 -103 q 58 -78 71 -89 q 34 -53 44 -67 q 20 -26 24 -40 l 20 -26 q 36 47 20 12 q 80 108 52 81 q 145 151 107 134 q 226 170 182 167 l 226 170 q 221 219 226 195 q 211 266 216 243 q 200 310 205 288 q 195 352 195 331 l 195 352 q 206 406 195 379 q 235 455 217 432 q 277 493 253 477 q 327 515 301 509 l 327 515 q 357 498 338 512 q 393 465 375 483 q 425 429 411 447 q 442 398 439 410 z m 112 -58 l 112 -58 q 158 -29 136 -48 q 195 14 179 -10 q 221 65 211 38 q 230 118 230 92 l 230 118 q 186 100 210 115 q 141 63 162 84 q 106 18 120 41 q 92 -22 92 -5 l 92 -22 q 112 -58 92 -44 z"},";":{"ha":284,"x_min":23,"x_max":344,"o":"m 39 -169 l 39 -169 q 28 -152 33 -164 q 23 -131 23 -141 l 23 -131 q 95 -49 73 -88 q 116 36 116 -10 l 116 36 q 114 88 116 66 q 104 137 111 109 l 104 137 q 154 129 129 135 q 198 113 178 122 q 230 91 217 103 q 246 66 243 78 l 246 66 q 39 -169 199 -100 z m 239 280 l 239 280 q 206 294 223 282 q 183 319 188 305 l 183 319 q 187 350 183 331 q 195 389 190 369 q 205 426 200 408 q 212 452 210 443 l 212 452 q 243 446 224 452 q 281 430 261 440 q 318 406 300 419 q 344 378 335 392 l 344 378 q 321 340 335 358 q 292 309 307 322 q 262 288 276 295 q 239 280 248 280 z"}," ":{"ha":238,"x_min":0,"x_max":0,"o":""},"t":{"ha":352,"x_min":125,"x_max":461,"o":"m 213 383 l 156 383 q 147 409 151 389 q 143 442 143 428 l 143 442 q 193 439 169 440 q 237 436 217 437 l 237 436 q 270 496 252 466 q 304 550 287 525 q 335 591 320 574 q 357 613 349 608 l 357 613 q 383 610 367 613 q 414 601 398 606 q 443 589 430 595 q 461 577 456 583 l 461 577 q 410 507 431 539 q 363 432 388 474 l 363 432 q 404 433 383 432 q 445 436 424 434 l 445 436 q 453 424 450 431 q 456 408 456 416 l 456 408 q 337 388 407 390 l 337 388 q 293 293 312 340 q 260 201 273 245 q 239 118 246 157 q 231 48 231 79 l 231 48 q 264 -1 231 4 l 264 -1 q 321 14 294 3 q 369 42 348 25 l 369 42 q 376 27 375 33 l 376 27 q 356 6 370 18 q 324 -17 341 -6 q 291 -37 307 -29 q 267 -46 275 -45 l 267 -46 q 217 -35 242 -45 q 172 -10 192 -25 q 138 24 151 5 q 125 60 125 42 l 125 60 q 132 121 125 84 q 150 200 138 157 q 178 290 162 243 q 213 383 194 337 l 213 383 z"},"u":{"ha":494,"x_min":85,"x_max":572,"o":"m 369 22 l 369 22 q 344 62 350 38 q 337 103 337 86 l 337 103 q 342 139 337 124 l 342 139 q 324 123 338 139 q 294 85 310 107 q 261 42 277 63 q 237 11 245 21 l 237 11 q 213 -11 224 -3 q 194 -20 201 -19 l 194 -20 q 161 -13 178 -19 q 128 2 143 -8 q 101 26 112 12 q 85 58 89 40 l 85 58 q 87 104 85 86 q 93 143 88 122 l 93 143 q 120 229 102 181 q 160 324 137 277 q 212 411 183 370 q 272 474 240 451 l 272 474 q 293 473 281 474 q 318 467 305 471 q 342 458 330 463 q 361 443 353 452 l 361 443 q 316 376 352 433 q 234 212 279 319 l 234 212 q 222 180 229 201 q 208 136 215 159 q 197 91 201 113 q 192 56 192 69 l 192 56 q 195 44 192 48 q 199 38 197 40 l 199 38 q 237 71 214 44 q 301 154 260 98 l 301 154 q 325 186 311 168 q 352 225 338 204 q 379 267 366 245 q 399 311 391 289 l 399 311 q 410 340 403 323 q 426 374 416 356 q 448 411 435 392 q 477 445 460 429 l 477 445 q 505 442 490 445 q 534 435 520 439 q 557 425 547 430 q 572 413 567 419 l 572 413 q 532 326 554 369 q 491 242 510 283 q 459 159 472 200 q 446 79 446 118 l 446 79 q 450 43 446 58 q 457 17 453 27 q 465 -1 461 6 q 468 -13 468 -8 l 468 -13 q 466 -16 468 -14 l 466 -16 q 464 -17 465 -17 l 464 -17 q 446 -14 457 -17 q 422 -5 435 -11 q 395 7 408 0 q 369 22 381 14 z"},"_":{"ha":569,"x_min":41,"x_max":549,"o":"m 125 -102 l 125 -102 q 64 -84 87 -102 q 41 -36 41 -67 l 41 -36 q 44 -20 41 -31 q 48 -5 46 -10 l 48 -5 q 88 -9 69 -8 q 136 -10 107 -10 l 136 -10 q 255 -7 199 -10 q 355 0 310 -4 q 432 7 400 4 q 481 10 464 10 l 481 10 q 523 -13 504 10 q 549 -79 541 -36 l 549 -79 q 499 -75 518 -76 q 464 -74 479 -74 l 464 -74 q 365 -78 410 -74 q 279 -88 319 -83 q 200 -97 238 -93 q 125 -102 162 -102 z"},"v":{"ha":448,"x_min":119,"x_max":560,"o":"m 152 354 l 152 354 q 155 388 152 372 q 165 416 157 404 q 187 434 173 427 q 224 440 201 440 l 224 440 q 256 437 238 440 q 281 426 273 434 l 281 426 q 275 396 277 409 q 271 368 272 383 q 268 331 269 352 q 266 275 267 309 l 266 275 q 260 154 264 207 q 239 47 255 100 l 239 47 q 242 43 239 43 l 242 43 q 276 75 257 54 q 316 123 295 96 q 358 179 337 149 q 397 238 379 209 l 397 238 q 450 343 421 280 q 498 478 479 406 l 498 478 q 514 476 504 478 q 533 470 523 473 q 550 462 542 466 q 560 455 557 458 l 560 455 q 540 367 558 412 q 495 280 521 322 q 440 201 469 238 q 387 137 411 164 l 387 137 q 291 37 339 81 q 175 -48 242 -7 l 175 -48 q 134 -21 149 -38 q 119 13 119 -5 l 119 13 q 125 41 119 25 q 137 81 130 56 q 150 142 144 105 q 155 236 155 179 l 155 236 q 154 303 155 269 q 152 354 152 336 z"},"w":{"ha":635,"x_min":106,"x_max":743,"o":"m 106 41 l 106 41 q 111 97 106 61 q 123 175 115 133 q 140 261 130 217 q 159 340 149 305 l 159 340 q 200 413 172 387 q 268 438 227 438 l 268 438 q 312 431 290 438 q 337 413 333 424 l 337 413 q 291 354 308 389 q 263 278 273 318 q 247 195 252 237 q 235 115 241 152 l 235 115 q 298 195 268 159 q 350 251 327 230 l 350 251 q 392 300 381 280 q 411 342 403 319 l 411 342 q 426 384 417 360 q 454 428 434 408 l 454 428 q 471 429 458 429 l 471 429 q 493 428 481 429 q 514 424 504 427 q 531 417 524 421 q 539 407 538 413 l 539 407 q 509 342 523 386 q 484 244 495 297 q 464 139 473 191 q 448 50 455 86 l 448 50 q 466 66 452 52 q 498 101 480 80 q 535 147 515 122 q 569 196 554 172 l 569 196 q 601 251 588 225 q 623 305 613 276 q 640 370 632 334 q 657 454 648 405 l 657 454 q 684 468 663 462 q 721 473 704 473 l 721 473 q 743 468 736 473 l 743 468 q 725 368 738 412 q 688 283 711 324 q 631 200 665 241 q 551 109 597 158 l 551 109 q 510 65 532 89 q 466 21 487 41 q 426 -14 444 0 q 397 -28 407 -28 l 397 -28 q 359 -10 374 -28 q 344 36 344 8 l 344 36 q 347 87 344 65 q 355 132 349 108 l 355 132 q 365 169 361 154 q 371 195 368 184 q 374 214 373 206 q 376 230 375 222 l 376 230 q 355 214 368 226 q 328 185 342 201 q 300 151 314 168 q 277 122 286 134 l 277 122 q 244 76 258 96 q 218 38 230 56 q 193 2 205 20 q 165 -38 181 -17 l 165 -38 q 120 -8 133 -28 q 106 41 106 12 z"},"x":{"ha":426,"x_min":28,"x_max":522,"o":"m 408 6 l 408 6 q 374 -21 397 -11 q 329 -34 350 -32 l 329 -34 q 291 21 312 -14 q 251 101 270 55 l 251 101 q 149 18 200 55 q 54 -46 98 -20 l 54 -46 q 36 -34 43 -44 q 28 -8 29 -24 l 28 -8 q 76 21 48 3 q 132 61 103 39 q 187 106 160 82 q 232 151 213 129 l 232 151 q 201 234 215 191 q 176 316 186 276 q 159 388 165 355 q 153 440 153 420 l 153 440 q 157 459 153 454 q 173 463 160 463 l 173 463 q 198 461 183 463 q 227 456 212 459 q 257 450 242 453 q 283 442 272 446 l 283 442 q 281 423 281 431 q 281 400 281 415 l 281 400 q 288 321 281 361 q 309 233 294 280 l 309 233 q 385 338 350 280 q 456 475 420 395 l 456 475 q 499 461 481 470 q 522 440 517 451 l 522 440 q 460 324 511 394 q 330 175 409 254 l 330 175 q 364 95 344 137 q 408 6 384 52 z"},"y":{"ha":489,"x_min":-94,"x_max":579,"o":"m 473 155 l 473 155 q 427 22 450 82 q 378 -88 404 -38 q 322 -181 352 -139 q 256 -262 292 -224 l 256 -262 q 161 -335 210 -310 q 63 -361 112 -361 l 63 -361 q 14 -355 38 -361 q -32 -340 -11 -350 q -70 -318 -54 -331 q -94 -292 -87 -306 l -94 -292 q -80 -271 -94 -280 l -80 -271 q -60 -288 -68 -282 q -44 -298 -52 -294 q -28 -303 -37 -302 q -9 -304 -20 -304 l -9 -304 q 103 -270 48 -304 q 206 -175 157 -237 q 294 -26 254 -114 q 362 169 334 61 l 362 169 q 330 120 349 149 q 288 63 311 91 q 241 11 265 34 q 193 -20 216 -12 l 193 -20 q 160 -13 177 -19 q 127 2 142 -8 q 99 26 111 12 q 83 58 87 40 l 83 58 q 85 105 83 87 q 92 143 87 122 l 92 143 q 119 229 101 181 q 160 324 136 277 q 212 411 183 370 q 271 474 240 451 l 271 474 q 291 473 279 474 q 316 467 303 471 q 341 458 329 463 q 362 443 353 452 l 362 443 q 314 376 351 433 q 232 212 277 319 l 232 212 q 220 180 227 201 q 207 136 213 159 q 195 91 200 113 q 190 56 190 69 l 190 56 q 193 44 190 48 q 197 38 195 40 l 197 38 q 245 68 215 41 q 313 150 275 94 l 313 150 q 357 222 337 186 q 397 293 377 257 q 437 367 416 329 q 482 445 458 405 l 482 445 q 510 442 495 445 q 539 435 525 439 q 564 425 553 430 q 579 413 574 419 l 579 413 q 521 284 548 347 q 473 155 494 221 z"},"z":{"ha":472,"x_min":61,"x_max":519,"o":"m 61 14 l 61 14 q 89 66 61 30 q 164 147 117 101 q 271 243 210 192 q 396 340 331 293 l 396 340 q 330 353 354 349 q 290 357 305 357 l 290 357 q 238 349 261 357 q 193 323 215 341 l 193 323 q 147 415 147 363 l 147 415 q 148 434 147 431 l 148 434 q 189 460 165 451 q 238 469 212 469 l 238 469 q 295 460 266 469 q 352 441 324 451 q 405 421 380 430 q 448 412 429 412 l 448 412 q 473 415 459 412 q 495 423 486 418 l 495 423 q 512 395 504 416 q 519 354 519 374 l 519 354 q 445 312 488 342 q 356 243 401 282 q 269 160 311 204 q 198 77 226 116 l 198 77 q 255 68 219 68 l 255 68 q 302 72 278 68 q 349 83 326 76 q 390 100 371 90 q 422 120 409 109 l 422 120 q 469 32 469 90 l 469 32 q 469 19 469 24 q 467 7 468 14 l 467 7 q 367 -22 421 -22 l 367 -22 q 313 -16 340 -22 q 261 -5 286 -11 q 213 7 235 1 q 171 12 190 12 l 171 12 q 93 -33 123 12 l 93 -33 q 72 -15 80 -28 q 61 14 63 -2 z"},"/":{"ha":545,"x_min":-11,"x_max":740,"o":"m 740 743 l 740 743 q 564 457 656 596 q 379 198 472 318 q 197 -18 286 78 q 31 -174 108 -114 l 31 -174 q 7 -158 20 -172 q -11 -128 -7 -145 l -11 -128 q 70 -63 26 -106 q 161 37 113 -20 q 258 162 208 94 q 354 302 307 230 q 445 447 401 374 q 524 585 488 519 q 585 707 559 651 q 624 801 611 762 l 624 801 q 655 795 636 801 q 691 780 673 789 q 723 761 709 771 q 740 743 737 751 z"},"\\":{"ha":660,"x_min":265,"x_max":602,"o":"m 265 743 l 265 743 q 282 761 268 751 q 314 780 296 771 q 351 795 332 789 q 381 801 369 801 l 381 801 q 413 608 395 704 q 451 420 431 511 q 492 245 471 328 q 533 93 513 162 q 571 -29 553 23 q 602 -112 588 -82 l 602 -112 q 585 -142 598 -129 q 560 -158 571 -156 l 560 -158 q 491 -9 527 -103 q 416 203 454 84 q 340 461 378 322 q 265 743 301 599 z"},"#":{"ha":676,"x_min":113,"x_max":765,"o":"m 250 344 l 250 344 q 206 357 220 344 q 191 391 191 369 l 191 391 q 198 425 191 407 l 198 425 q 229 421 214 423 q 268 419 244 419 l 268 419 q 313 419 288 419 q 363 421 337 419 l 363 421 q 421 608 392 512 q 473 801 449 704 l 473 801 q 523 788 497 801 q 563 743 548 775 l 563 743 q 505 581 534 660 q 446 424 475 501 l 446 424 l 536 429 q 592 613 565 519 q 643 801 619 706 l 643 801 q 693 788 667 801 q 733 743 718 775 l 733 743 q 676 586 704 663 q 620 434 648 509 l 620 434 q 683 438 657 436 q 718 439 709 439 l 718 439 q 750 425 737 439 q 765 368 763 410 l 765 368 q 724 372 740 371 q 696 373 708 373 l 696 373 q 650 372 675 373 q 595 369 624 371 l 595 369 q 575 318 584 343 q 554 267 565 292 l 554 267 q 610 270 587 269 q 641 271 633 271 l 641 271 q 673 257 660 271 q 687 200 685 242 l 687 200 q 647 204 663 203 q 619 205 631 205 l 619 205 q 577 204 600 205 q 528 201 554 203 l 528 201 q 435 -8 479 83 q 352 -155 390 -100 l 352 -155 q 326 -112 330 -143 l 326 -112 q 383 10 349 -70 q 456 196 417 89 l 456 196 q 404 192 430 194 q 352 188 378 190 l 352 188 q 262 -13 305 75 q 182 -155 219 -101 l 182 -155 q 156 -112 160 -143 l 156 -112 q 211 4 178 -72 q 281 182 243 80 l 281 182 q 218 178 246 179 q 173 176 190 176 l 173 176 q 128 189 143 176 q 113 223 113 201 l 113 223 q 115 239 113 231 q 120 257 117 247 l 120 257 q 152 253 137 255 q 191 251 167 251 l 191 251 q 245 251 215 251 q 307 253 275 251 l 307 253 q 323 300 315 276 q 339 348 331 324 l 339 348 q 288 345 311 346 q 250 344 265 344 z m 419 355 l 419 355 q 400 305 409 329 q 380 257 390 280 l 380 257 q 431 259 406 258 q 480 262 456 260 l 480 262 q 497 312 488 287 q 514 363 506 337 l 514 363 q 466 359 490 361 q 419 355 442 357 z"},"&":{"ha":667,"x_min":96,"x_max":792,"o":"m 591 332 l 591 332 q 539 344 555 332 q 523 380 523 355 l 523 380 q 529 417 523 396 l 529 417 q 566 413 548 414 q 608 412 583 412 l 608 412 q 662 413 640 412 q 698 414 683 413 q 721 416 712 415 q 736 416 729 416 l 736 416 q 771 399 760 416 q 792 339 782 381 l 792 339 q 745 343 763 342 q 712 344 726 344 l 712 344 q 694 344 702 344 q 679 343 686 343 l 679 343 q 599 223 644 287 q 501 100 553 158 q 391 -3 448 42 q 277 -67 334 -49 l 277 -67 q 206 -48 238 -63 q 150 -10 174 -33 q 112 42 126 12 q 96 105 98 71 l 96 105 q 116 199 97 152 q 163 285 134 245 q 229 357 192 325 q 302 408 265 389 l 302 408 q 250 446 265 424 q 234 494 234 468 l 234 494 q 260 570 234 530 q 323 643 285 609 q 405 702 361 677 q 484 732 448 726 l 484 732 q 513 720 494 730 q 549 694 531 709 q 582 664 567 679 q 598 637 596 648 l 598 637 q 590 610 596 625 q 573 581 583 595 q 552 553 563 566 q 530 532 541 540 l 530 532 q 518 542 520 535 l 518 542 q 541 577 530 554 q 552 619 552 599 l 552 619 q 547 634 552 630 q 531 637 542 637 l 531 637 q 469 615 503 637 q 406 560 435 593 q 356 490 376 527 q 336 421 336 452 l 336 421 q 363 415 347 420 q 393 401 378 409 q 420 384 408 393 q 434 368 431 375 l 434 368 q 344 321 385 356 q 272 241 302 286 q 226 147 242 196 q 209 59 209 98 l 209 59 q 224 2 209 24 q 271 -21 239 -21 l 271 -21 q 330 -3 298 -21 q 395 44 361 14 q 462 111 428 73 q 527 188 495 148 q 586 266 558 227 q 635 336 613 304 l 635 336 q 616 333 626 334 q 591 332 605 332 z"},"$":{"ha":668,"x_min":105,"x_max":729,"o":"m 621 786 l 595 703 q 661 677 628 692 q 726 642 694 661 l 726 642 q 729 622 728 628 q 729 608 729 615 l 729 608 q 713 543 729 573 q 673 502 697 513 l 673 502 q 626 557 655 534 q 561 595 596 580 l 561 595 q 525 484 543 538 q 490 376 507 429 l 490 376 l 502 370 q 628 275 585 325 q 671 149 671 224 l 671 149 q 654 59 671 99 q 607 -9 637 19 q 535 -53 577 -38 q 442 -69 493 -69 l 442 -69 q 333 -49 391 -69 l 333 -49 q 301 -116 316 -85 q 270 -174 285 -148 l 270 -174 q 238 -138 245 -169 l 238 -138 q 262 -94 249 -121 q 289 -32 275 -67 l 289 -32 q 220 6 253 -16 q 161 52 186 27 q 120 105 135 77 q 105 161 105 132 l 105 161 q 117 213 105 181 q 161 280 129 245 l 161 280 q 184 207 161 250 q 258 126 207 164 l 258 126 q 331 82 293 99 l 331 82 q 368 195 349 136 q 404 317 387 254 l 404 317 q 281 411 319 365 q 242 516 242 457 l 242 516 q 259 597 242 559 q 306 663 275 635 q 381 707 337 691 q 478 723 424 723 l 478 723 q 492 723 485 723 q 507 721 499 722 l 507 721 q 520 782 514 753 q 529 833 525 810 l 529 833 q 578 816 550 827 q 621 786 606 805 l 621 786 z m 618 138 l 618 138 q 607 176 618 157 q 574 214 595 195 q 524 252 553 233 q 461 288 495 270 l 461 288 q 420 172 440 227 q 380 65 400 116 l 380 65 q 431 54 406 57 q 479 50 456 50 l 479 50 q 548 60 521 50 q 591 84 575 70 q 612 112 606 97 q 618 138 618 127 z m 292 556 l 292 556 q 304 521 292 539 q 334 485 315 503 q 378 448 353 466 q 430 412 403 429 l 430 412 q 458 517 444 466 q 483 617 471 568 l 483 617 q 454 621 468 619 q 425 622 439 622 l 425 622 q 374 617 398 622 q 332 604 350 612 q 303 583 313 595 q 292 556 292 571 z"},"%":{"ha":619,"x_min":87,"x_max":739,"o":"m 563 265 l 563 265 q 596 257 582 265 q 620 235 610 248 q 634 205 629 221 q 638 171 638 188 l 638 171 q 631 143 638 156 q 613 121 624 130 q 589 106 602 111 q 564 100 576 100 l 564 100 q 536 107 550 100 q 511 125 522 113 q 493 151 500 136 q 485 181 485 165 l 485 181 q 492 208 485 193 q 509 236 498 223 q 534 257 520 248 q 563 265 548 265 z m 305 649 l 305 649 q 338 641 324 649 q 362 619 352 632 q 376 588 371 605 q 380 554 380 571 l 380 554 q 373 527 380 539 q 355 505 366 514 q 331 490 344 495 q 306 484 318 484 l 306 484 q 278 491 292 484 q 253 508 264 497 q 234 534 241 519 q 227 565 227 548 l 227 565 q 234 592 227 577 q 251 620 240 607 q 276 641 261 632 q 305 649 290 649 z m 739 713 l 739 713 q 634 562 689 638 q 522 414 578 486 q 410 274 465 341 q 303 148 354 206 q 208 42 252 89 q 129 -39 163 -6 l 129 -39 q 105 -23 118 -37 q 87 7 91 -10 l 87 7 q 174 96 126 42 q 274 214 222 149 q 378 350 325 278 q 479 493 430 421 q 570 634 528 565 q 643 761 612 703 l 643 761 q 670 757 655 761 q 700 745 685 752 q 725 730 714 738 q 739 713 736 721 z"}}}
